<svg xmlns="http://www.w3.org/2000/svg" xmlns:xlink="http://www.w3.org/1999/xlink" contentStyleType="text/css" data-diagram-type="DESCRIPTION" height="509px" preserveAspectRatio="none" style="width:1201px;height:509px;background:#FFFFFF;" version="1.1" viewBox="0 0 1201 509" width="1201px" zoomAndPan="magnify"><defs/><g><!--cluster src--><g class="cluster" data-entity="src" data-source-line="1" data-uid="ent0002" id="cluster_src"><path d="M8.5,6 L30.5205,6 A3.75,3.75 0 0 1 33.0205,8.5 L40.0205,29.6094 L1191.5,29.6094 A2.5,2.5 0 0 1 1194,32.1094 L1194,499.5 A2.5,2.5 0 0 1 1191.5,502 L8.5,502 A2.5,2.5 0 0 1 6,499.5 L6,8.5 A2.5,2.5 0 0 1 8.5,6" fill="none" style="stroke:#000000;stroke-width:1.5;"/><line style="stroke:#000000;stroke-width:1.5;" x1="6" x2="40.0205" y1="29.6094" y2="29.6094"/><text fill="#000000" font-family="sans-serif" font-size="14" font-weight="bold" lengthAdjust="spacing" textLength="21.0205" x="10" y="22.5332">src</text></g><!--cluster components--><g class="cluster" data-entity="components" data-source-line="2" data-uid="ent0003" id="cluster_components"><path d="M404.5,114 L488.7275,114 A3.75,3.75 0 0 1 491.2275,116.5 L498.2275,137.6094 L626.5,137.6094 A2.5,2.5 0 0 1 629,140.1094 L629,211.5 A2.5,2.5 0 0 1 626.5,214 L404.5,214 A2.5,2.5 0 0 1 402,211.5 L402,116.5 A2.5,2.5 0 0 1 404.5,114" fill="none" style="stroke:#000000;stroke-width:1.5;"/><line style="stroke:#000000;stroke-width:1.5;" x1="402" x2="498.2275" y1="137.6094" y2="137.6094"/><text fill="#000000" font-family="sans-serif" font-size="14" font-weight="bold" lengthAdjust="spacing" textLength="83.2275" x="406" y="130.5332">components</text></g><!--cluster hooks--><g class="cluster" data-entity="hooks" data-source-line="6" data-uid="ent0006" id="cluster_hooks"><path d="M852.5,246 L894.7275,246 A3.75,3.75 0 0 1 897.2275,248.5 L904.2275,269.6094 L1159.5,269.6094 A2.5,2.5 0 0 1 1162,272.1094 L1162,467.5 A2.5,2.5 0 0 1 1159.5,470 L852.5,470 A2.5,2.5 0 0 1 850,467.5 L850,248.5 A2.5,2.5 0 0 1 852.5,246" fill="none" style="stroke:#000000;stroke-width:1.5;"/><line style="stroke:#000000;stroke-width:1.5;" x1="850" x2="904.2275" y1="269.6094" y2="269.6094"/><text fill="#000000" font-family="sans-serif" font-size="14" font-weight="bold" lengthAdjust="spacing" textLength="41.2275" x="854" y="262.5332">hooks</text></g><!--cluster utils--><g class="cluster" data-entity="utils" data-source-line="11" data-uid="ent0010" id="cluster_utils"><path d="M40.5,246 L70.2793,246 A3.75,3.75 0 0 1 72.7793,248.5 L79.7793,269.6094 L317.5,269.6094 A2.5,2.5 0 0 1 320,272.1094 L320,467.5 A2.5,2.5 0 0 1 317.5,470 L40.5,470 A2.5,2.5 0 0 1 38,467.5 L38,248.5 A2.5,2.5 0 0 1 40.5,246" fill="none" style="stroke:#000000;stroke-width:1.5;"/><line style="stroke:#000000;stroke-width:1.5;" x1="38" x2="79.7793" y1="269.6094" y2="269.6094"/><text fill="#000000" font-family="sans-serif" font-size="14" font-weight="bold" lengthAdjust="spacing" textLength="28.7793" x="42" y="262.5332">utils</text></g><!--cluster types--><g class="cluster" data-entity="types" data-source-line="16" data-uid="ent0014" id="cluster_types"><path d="M362.5,246 L400.0723,246 A3.75,3.75 0 0 1 402.5723,248.5 L409.5723,269.6094 L512.5,269.6094 A2.5,2.5 0 0 1 515,272.1094 L515,359.5 A2.5,2.5 0 0 1 512.5,362 L362.5,362 A2.5,2.5 0 0 1 360,359.5 L360,248.5 A2.5,2.5 0 0 1 362.5,246" fill="none" style="stroke:#000000;stroke-width:1.5;"/><line style="stroke:#000000;stroke-width:1.5;" x1="360" x2="409.5723" y1="269.6094" y2="269.6094"/><text fill="#000000" font-family="sans-serif" font-size="14" font-weight="bold" lengthAdjust="spacing" textLength="36.5723" x="364" y="262.5332">types</text></g><!--cluster imports (figma)--><g class="cluster" data-entity="imports .figma." data-source-line="19" data-uid="ent0016" id="cluster_imports .figma."><path d="M557.5,246 L660.3896,246 A3.75,3.75 0 0 1 662.8896,248.5 L669.8896,269.6094 L807.5,269.6094 A2.5,2.5 0 0 1 810,272.1094 L810,359.5 A2.5,2.5 0 0 1 807.5,362 L557.5,362 A2.5,2.5 0 0 1 555,359.5 L555,248.5 A2.5,2.5 0 0 1 557.5,246" fill="none" style="stroke:#000000;stroke-width:1.5;"/><line style="stroke:#000000;stroke-width:1.5;" x1="555" x2="669.8896" y1="269.6094" y2="269.6094"/><text fill="#000000" font-family="sans-serif" font-size="14" font-weight="bold" lengthAdjust="spacing" textLength="101.8896" x="559" y="262.5332">imports (figma)</text></g><!--entity App.tsx--><g class="entity" data-entity="App.tsx" data-source-line="22" data-uid="ent0018" id="entity_App.tsx"><rect fill="#F1F1F1" height="47.6094" rx="2.5" ry="2.5" style="stroke:#181818;stroke-width:0.5;" width="86.6895" x="519.5" y="42"/><rect fill="#F1F1F1" height="10" style="stroke:#181818;stroke-width:0.5;" width="15" x="586.1895" y="47"/><rect fill="#F1F1F1" height="2" style="stroke:#181818;stroke-width:0.5;" width="4" x="584.1895" y="49"/><rect fill="#F1F1F1" height="2" style="stroke:#181818;stroke-width:0.5;" width="4" x="584.1895" y="53"/><text fill="#000000" font-family="sans-serif" font-size="14" lengthAdjust="spacing" textLength="46.6895" x="534.5" y="76.5332">App.tsx</text></g><!--entity Features--><g class="entity" data-entity="Features" data-source-line="3" data-uid="ent0004" id="entity_Features"><rect fill="#F1F1F1" height="47.6094" rx="2.5" ry="2.5" style="stroke:#181818;stroke-width:0.5;" width="99.9238" x="513" y="150"/><rect fill="#F1F1F1" height="10" style="stroke:#181818;stroke-width:0.5;" width="15" x="592.9238" y="155"/><rect fill="#F1F1F1" height="2" style="stroke:#181818;stroke-width:0.5;" width="4" x="590.9238" y="157"/><rect fill="#F1F1F1" height="2" style="stroke:#181818;stroke-width:0.5;" width="4" x="590.9238" y="161"/><text fill="#000000" font-family="sans-serif" font-size="14" lengthAdjust="spacing" textLength="59.9238" x="528" y="184.5332">features/*</text></g><!--entity UI--><g class="entity" data-entity="UI" data-source-line="4" data-uid="ent0005" id="entity_UI"><rect fill="#F1F1F1" height="47.6094" rx="2.5" ry="2.5" style="stroke:#181818;stroke-width:0.5;" width="60.2344" x="418" y="150"/><rect fill="#F1F1F1" height="10" style="stroke:#181818;stroke-width:0.5;" width="15" x="458.2344" y="155"/><rect fill="#F1F1F1" height="2" style="stroke:#181818;stroke-width:0.5;" width="4" x="456.2344" y="157"/><rect fill="#F1F1F1" height="2" style="stroke:#181818;stroke-width:0.5;" width="4" x="456.2344" y="161"/><text fill="#000000" font-family="sans-serif" font-size="14" lengthAdjust="spacing" textLength="20.2344" x="433" y="184.5332">ui/*</text></g><!--entity useAuth--><g class="entity" data-entity="useAuth" data-source-line="7" data-uid="ent0007" id="entity_useAuth"><rect fill="#F1F1F1" height="47.6094" rx="2.5" ry="2.5" style="stroke:#181818;stroke-width:0.5;" width="91.3721" x="893.5" y="290"/><rect fill="#F1F1F1" height="10" style="stroke:#181818;stroke-width:0.5;" width="15" x="964.8721" y="295"/><rect fill="#F1F1F1" height="2" style="stroke:#181818;stroke-width:0.5;" width="4" x="962.8721" y="297"/><rect fill="#F1F1F1" height="2" style="stroke:#181818;stroke-width:0.5;" width="4" x="962.8721" y="301"/><text fill="#000000" font-family="sans-serif" font-size="14" lengthAdjust="spacing" textLength="51.3721" x="908.5" y="324.5332">useAuth</text></g><!--entity useStudents--><g class="entity" data-entity="useStudents" data-source-line="8" data-uid="ent0008" id="entity_useStudents"><rect fill="#F1F1F1" height="47.6094" rx="2.5" ry="2.5" style="stroke:#181818;stroke-width:0.5;" width="117.834" x="1020" y="290"/><rect fill="#F1F1F1" height="10" style="stroke:#181818;stroke-width:0.5;" width="15" x="1117.834" y="295"/><rect fill="#F1F1F1" height="2" style="stroke:#181818;stroke-width:0.5;" width="4" x="1115.834" y="297"/><rect fill="#F1F1F1" height="2" style="stroke:#181818;stroke-width:0.5;" width="4" x="1115.834" y="301"/><text fill="#000000" font-family="sans-serif" font-size="14" lengthAdjust="spacing" textLength="77.834" x="1035" y="324.5332">useStudents</text></g><!--entity useActivities--><g class="entity" data-entity="useActivities" data-source-line="9" data-uid="ent0009" id="entity_useActivities"><rect fill="#F1F1F1" height="47.6094" rx="2.5" ry="2.5" style="stroke:#181818;stroke-width:0.5;" width="117.8066" x="893" y="398"/><rect fill="#F1F1F1" height="10" style="stroke:#181818;stroke-width:0.5;" width="15" x="990.8066" y="403"/><rect fill="#F1F1F1" height="2" style="stroke:#181818;stroke-width:0.5;" width="4" x="988.8066" y="405"/><rect fill="#F1F1F1" height="2" style="stroke:#181818;stroke-width:0.5;" width="4" x="988.8066" y="409"/><text fill="#000000" font-family="sans-serif" font-size="14" lengthAdjust="spacing" textLength="77.8066" x="908" y="432.5332">useActivities</text></g><!--entity format--><g class="entity" data-entity="format" data-source-line="12" data-uid="ent0011" id="entity_format"><rect fill="#F1F1F1" height="47.6094" rx="2.5" ry="2.5" style="stroke:#181818;stroke-width:0.5;" width="79.6758" x="81" y="290"/><rect fill="#F1F1F1" height="10" style="stroke:#181818;stroke-width:0.5;" width="15" x="140.6758" y="295"/><rect fill="#F1F1F1" height="2" style="stroke:#181818;stroke-width:0.5;" width="4" x="138.6758" y="297"/><rect fill="#F1F1F1" height="2" style="stroke:#181818;stroke-width:0.5;" width="4" x="138.6758" y="301"/><text fill="#000000" font-family="sans-serif" font-size="14" lengthAdjust="spacing" textLength="39.6758" x="96" y="324.5332">format</text></g><!--entity validation--><g class="entity" data-entity="validation" data-source-line="13" data-uid="ent0012" id="entity_validation"><rect fill="#F1F1F1" height="47.6094" rx="2.5" ry="2.5" style="stroke:#181818;stroke-width:0.5;" width="99.1514" x="196.5" y="290"/><rect fill="#F1F1F1" height="10" style="stroke:#181818;stroke-width:0.5;" width="15" x="275.6514" y="295"/><rect fill="#F1F1F1" height="2" style="stroke:#181818;stroke-width:0.5;" width="4" x="273.6514" y="297"/><rect fill="#F1F1F1" height="2" style="stroke:#181818;stroke-width:0.5;" width="4" x="273.6514" y="301"/><text fill="#000000" font-family="sans-serif" font-size="14" lengthAdjust="spacing" textLength="59.1514" x="211.5" y="324.5332">validation</text></g><!--entity constants--><g class="entity" data-entity="constants" data-source-line="14" data-uid="ent0013" id="entity_constants"><rect fill="#F1F1F1" height="47.6094" rx="2.5" ry="2.5" style="stroke:#181818;stroke-width:0.5;" width="99.9238" x="81" y="398"/><rect fill="#F1F1F1" height="10" style="stroke:#181818;stroke-width:0.5;" width="15" x="160.9238" y="403"/><rect fill="#F1F1F1" height="2" style="stroke:#181818;stroke-width:0.5;" width="4" x="158.9238" y="405"/><rect fill="#F1F1F1" height="2" style="stroke:#181818;stroke-width:0.5;" width="4" x="158.9238" y="409"/><text fill="#000000" font-family="sans-serif" font-size="14" lengthAdjust="spacing" textLength="59.9238" x="96" y="432.5332">constants</text></g><!--entity index.ts--><g class="entity" data-entity="index.ts" data-source-line="17" data-uid="ent0015" id="entity_index.ts"><rect fill="#F1F1F1" height="47.6094" rx="2.5" ry="2.5" style="stroke:#181818;stroke-width:0.5;" width="88.248" x="403" y="290"/><rect fill="#F1F1F1" height="10" style="stroke:#181818;stroke-width:0.5;" width="15" x="471.248" y="295"/><rect fill="#F1F1F1" height="2" style="stroke:#181818;stroke-width:0.5;" width="4" x="469.248" y="297"/><rect fill="#F1F1F1" height="2" style="stroke:#181818;stroke-width:0.5;" width="4" x="469.248" y="301"/><text fill="#000000" font-family="sans-serif" font-size="14" lengthAdjust="spacing" textLength="48.248" x="418" y="324.5332">index.ts</text></g><!--entity figma svgs/components--><g class="entity" data-entity="figma svgs.components" data-source-line="20" data-uid="ent0017" id="entity_figma svgs.components"><rect fill="#F1F1F1" height="47.6094" rx="2.5" ry="2.5" style="stroke:#181818;stroke-width:0.5;" width="187.0684" x="598.5" y="290"/><rect fill="#F1F1F1" height="10" style="stroke:#181818;stroke-width:0.5;" width="15" x="765.5684" y="295"/><rect fill="#F1F1F1" height="2" style="stroke:#181818;stroke-width:0.5;" width="4" x="763.5684" y="297"/><rect fill="#F1F1F1" height="2" style="stroke:#181818;stroke-width:0.5;" width="4" x="763.5684" y="301"/><text fill="#000000" font-family="sans-serif" font-size="14" lengthAdjust="spacing" textLength="147.0684" x="613.5" y="324.5332">figma svgs/components</text></g><!--link App.tsx to Features--><g class="link" data-entity-1="App.tsx" data-entity-2="Features" data-source-line="22" data-uid="lnk19" id="link_App.tsx_Features"><path d="M563,90 C563,107.66 563,125.94 563,143.68" fill="none" id="App.tsx-to-Features" style="stroke:#181818;stroke-width:1;"/><polygon fill="#181818" points="563,149.68,567,140.68,563,144.68,559,140.68,563,149.68" style="stroke:#181818;stroke-width:1;"/></g><!--link App.tsx to UI--><g class="link" data-entity-1="App.tsx" data-entity-2="UI" data-source-line="23" data-uid="lnk20" id="link_App.tsx_UI"><path d="M519.33,88.81 C511.14,93.87 502.97,99.66 496,106 C482.13,118.61 473.07,130.772 464.42,144.612" fill="none" id="App.tsx-to-UI" style="stroke:#181818;stroke-width:1;"/><polygon fill="#181818" points="461.24,149.7,469.402,144.188,463.89,145.46,462.618,139.948,461.24,149.7" style="stroke:#181818;stroke-width:1;"/></g><!--link App.tsx to hooks--><g class="link" data-entity-1="App.tsx" data-entity-2="hooks" data-source-line="24" data-uid="lnk21" id="link_App.tsx_hooks"><path d="M606.55,89.59 C657.63,117.6 742.84,169.14 802,230 C817.025,245.455 830.6325,265.4125 840.6713,281.8838 C843.1809,286.0016 845.4676,289.9015 847.4976,293.4587 C848.0051,294.348 848.4965,295.2159 848.9714,296.0604 C849.2088,296.4826 849.4421,296.8991 849.6712,297.3094 C849.7285,297.412 846.8645,292.2732 846.9213,292.375" fill="none" id="App.tsx-to-hooks" style="stroke:#181818;stroke-width:1;"/><polygon fill="#181818" points="849.8423,297.616,848.9547,287.8072,847.4081,293.2485,841.9668,291.7019,849.8423,297.616" style="stroke:#181818;stroke-width:1;"/></g><!--link Features to hooks--><g class="link" data-entity-1="Features" data-entity-2="hooks" data-source-line="25" data-uid="lnk22" id="link_Features_hooks"><path d="M583.02,198.23 C592.33,207.37 604.19,216.89 617,222 C655.22,237.25 766.09,209.9 802,230 C821.115,240.695 834.98,260.97 844.1325,278.8038 C845.2766,281.033 846.347,283.224 847.3448,285.3535 C847.8438,286.4182 848.3245,287.4675 848.7873,288.4985 C849.0187,289.014 849.2456,289.5249 849.468,290.0309 C849.5791,290.2838 849.6892,290.5356 849.7982,290.786 C849.8527,290.9113 847.5237,285.5297 847.5776,285.6543" fill="none" id="Features-to-hooks" style="stroke:#181818;stroke-width:1;"/><polygon fill="#181818" points="849.9608,291.1607,850.057,281.3124,847.9748,286.5721,842.7151,284.4899,849.9608,291.1607" style="stroke:#181818;stroke-width:1;"/></g><!--link Features to utils--><g class="link" data-entity-1="Features" data-entity-2="utils" data-source-line="26" data-uid="lnk23" id="link_Features_utils"><path d="M537.61,198.2 C525.85,207.45 511.13,217.07 496,222 C473.23,229.42 83.59,214.9 65,230 C61.4425,232.8888 58.468,236.295 55.9874,240.0511 C54.7471,241.9291 56.2891,238.5158 55.2847,240.5478" fill="none" id="Features-to-utils" style="stroke:#181818;stroke-width:1;"/><polygon fill="#181818" points="52.6258,245.9265,60.1999,239.631,54.8415,241.4443,53.0283,236.0859,52.6258,245.9265" style="stroke:#181818;stroke-width:1;"/></g><!--link Features to types--><g class="link" data-entity-1="Features" data-entity-2="types" data-source-line="27" data-uid="lnk24" id="link_Features_types"><path d="M537.16,198.06 C525.42,207.16 510.86,216.7 496,222 C473.12,230.16 405.43,214.18 387,230 C383.5238,232.985 380.6108,236.4642 378.1756,240.2742 C377.5669,241.2267 376.9879,242.1998 376.4376,243.1911 C376.1624,243.6867 375.8943,244.1869 375.6332,244.6913 C375.5026,244.9435 375.3738,245.1967 375.2468,245.451 C375.1832,245.5781 377.7652,240.32 377.7025,240.4476" fill="none" id="Features-to-types" style="stroke:#181818;stroke-width:1;"/><polygon fill="#181818" points="375.0574,245.8331,382.6154,239.5183,377.2617,241.3452,375.4348,235.9915,375.0574,245.8331" style="stroke:#181818;stroke-width:1;"/></g><!--link Features to imports (figma)--><g class="link" data-entity-1="Features" data-entity-2="imports .figma." data-source-line="28" data-uid="lnk25" id="link_Features_imports .figma."><path d="M563,198.1 C563,207.7675 563,219.6356 563,232.0358 C563,235.1358 563,238.2691 563,241.4096 C563,242.1947 563,242.9803 563,243.7659 C563,244.1587 563,244.5515 563,244.9443 C563,245.1407 563,239.337 563,239.5334" fill="none" id="Features-to-imports (figma)" style="stroke:#181818;stroke-width:1;"/><polygon fill="#181818" points="563,245.5334,567,236.5334,563,240.5334,559,236.5334,563,245.5334" style="stroke:#181818;stroke-width:1;"/></g><!--SRC=[TP3F2i8m38VlFaNmf8Bw1i8kWcVn93k4hiwWQykI3aLyTsVjxEQVOxuqNvgVGtN2KiEOQpM6smZ0TKJPobcZZV2h0R0_Q1HVQrxESa26TInVJKyHxpOjkFTLHsjFoU9PPrwE-RlQYY-UUnB9b513GZgmWSiBdNi_idM54WSRF5E1GjP4eAnXmMWUMEJgTBAGAVHbyUCPjH7KmZ0vK5dXDArzbi1DoSiKKpUzpvnhPPSSvlDLFwHX8yGqH26dbdOp_s58uHE6epxXrmsZ-mC0]--></g></svg>