<svg xmlns="http://www.w3.org/2000/svg" xmlns:xlink="http://www.w3.org/1999/xlink" contentStyleType="text/css" data-diagram-type="DESCRIPTION" height="777px" preserveAspectRatio="none" style="width:1451px;height:777px;background:#FFFFFF;" version="1.1" viewBox="0 0 1451 777" width="1451px" zoomAndPan="magnify"><defs/><g><!--cluster src/components (Top-level)--><g class="cluster" data-entity="src.components .Top-level." data-source-line="1" data-uid="ent0002" id="cluster_src.components .Top-level."><path d="M8.5,6 L192.3066,6 A3.75,3.75 0 0 1 194.8066,8.5 L201.8066,29.6094 L1031.5,29.6094 A2.5,2.5 0 0 1 1034,32.1094 L1034,535.5 A2.5,2.5 0 0 1 1031.5,538 L8.5,538 A2.5,2.5 0 0 1 6,535.5 L6,8.5 A2.5,2.5 0 0 1 8.5,6" fill="none" style="stroke:#000000;stroke-width:1.5;"/><line style="stroke:#000000;stroke-width:1.5;" x1="6" x2="201.8066" y1="29.6094" y2="29.6094"/><text fill="#000000" font-family="sans-serif" font-size="14" font-weight="bold" lengthAdjust="spacing" textLength="182.8066" x="10" y="22.5332">src/components (Top-level)</text></g><!--cluster src/components/features--><g class="cluster" data-entity="src.components.features" data-source-line="26" data-uid="ent0026" id="cluster_src.components.features"><path d="M1060.5,6 L1227.9961,6 A3.75,3.75 0 0 1 1230.4961,8.5 L1237.4961,29.6094 L1441.5,29.6094 A2.5,2.5 0 0 1 1444,32.1094 L1444,319.5 A2.5,2.5 0 0 1 1441.5,322 L1060.5,322 A2.5,2.5 0 0 1 1058,319.5 L1058,8.5 A2.5,2.5 0 0 1 1060.5,6" fill="none" style="stroke:#000000;stroke-width:1.5;"/><line style="stroke:#000000;stroke-width:1.5;" x1="1058" x2="1237.4961" y1="29.6094" y2="29.6094"/><text fill="#000000" font-family="sans-serif" font-size="14" font-weight="bold" lengthAdjust="spacing" textLength="166.4961" x="1062" y="22.5332">src/components/features</text></g><!--cluster src/components/ui--><g class="cluster" data-entity="src.components.ui" data-source-line="35" data-uid="ent0034" id="cluster_src.components.ui"><path d="M39.5,562 L164.9688,562 A3.75,3.75 0 0 1 167.4688,564.5 L174.4688,585.6094 L535.5,585.6094 A2.5,2.5 0 0 1 538,588.1094 L538,767.5 A2.5,2.5 0 0 1 535.5,770 L39.5,770 A2.5,2.5 0 0 1 37,767.5 L37,564.5 A2.5,2.5 0 0 1 39.5,562" fill="none" style="stroke:#000000;stroke-width:1.5;"/><line style="stroke:#000000;stroke-width:1.5;" x1="37" x2="174.4688" y1="585.6094" y2="585.6094"/><text fill="#000000" font-family="sans-serif" font-size="14" font-weight="bold" lengthAdjust="spacing" textLength="124.4688" x="41" y="578.5332">src/components/ui</text></g><!--entity ActivitiesList.tsx--><g class="entity" data-entity="ActivitiesList.tsx" data-source-line="2" data-uid="ent0003" id="entity_ActivitiesList.tsx"><rect fill="#F1F1F1" height="47.6094" rx="2.5" ry="2.5" style="stroke:#181818;stroke-width:0.5;" width="138.7998" x="33.5" y="42"/><rect fill="#F1F1F1" height="10" style="stroke:#181818;stroke-width:0.5;" width="15" x="152.2998" y="47"/><rect fill="#F1F1F1" height="2" style="stroke:#181818;stroke-width:0.5;" width="4" x="150.2998" y="49"/><rect fill="#F1F1F1" height="2" style="stroke:#181818;stroke-width:0.5;" width="4" x="150.2998" y="53"/><text fill="#000000" font-family="sans-serif" font-size="14" lengthAdjust="spacing" textLength="98.7998" x="48.5" y="76.5332">ActivitiesList.tsx</text></g><!--entity AddStudentDialog.tsx--><g class="entity" data-entity="AddStudentDialog.tsx" data-source-line="3" data-uid="ent0004" id="entity_AddStudentDialog.tsx"><rect fill="#F1F1F1" height="47.6094" rx="2.5" ry="2.5" style="stroke:#181818;stroke-width:0.5;" width="174.6406" x="210.5" y="42"/><rect fill="#F1F1F1" height="10" style="stroke:#181818;stroke-width:0.5;" width="15" x="365.1406" y="47"/><rect fill="#F1F1F1" height="2" style="stroke:#181818;stroke-width:0.5;" width="4" x="363.1406" y="49"/><rect fill="#F1F1F1" height="2" style="stroke:#181818;stroke-width:0.5;" width="4" x="363.1406" y="53"/><text fill="#000000" font-family="sans-serif" font-size="14" lengthAdjust="spacing" textLength="134.6406" x="225.5" y="76.5332">AddStudentDialog.tsx</text></g><!--entity AdminDashboard.tsx--><g class="entity" data-entity="AdminDashboard.tsx" data-source-line="4" data-uid="ent0005" id="entity_AdminDashboard.tsx"><rect fill="#F1F1F1" height="47.6094" rx="2.5" ry="2.5" style="stroke:#181818;stroke-width:0.5;" width="169.9512" x="444" y="42"/><rect fill="#F1F1F1" height="10" style="stroke:#181818;stroke-width:0.5;" width="15" x="593.9512" y="47"/><rect fill="#F1F1F1" height="2" style="stroke:#181818;stroke-width:0.5;" width="4" x="591.9512" y="49"/><rect fill="#F1F1F1" height="2" style="stroke:#181818;stroke-width:0.5;" width="4" x="591.9512" y="53"/><text fill="#000000" font-family="sans-serif" font-size="14" lengthAdjust="spacing" textLength="129.9512" x="459" y="76.5332">AdminDashboard.tsx</text></g><!--entity CreateActivity.tsx--><g class="entity" data-entity="CreateActivity.tsx" data-source-line="5" data-uid="ent0006" id="entity_CreateActivity.tsx"><rect fill="#F1F1F1" height="47.6094" rx="2.5" ry="2.5" style="stroke:#181818;stroke-width:0.5;" width="148.1377" x="661" y="42"/><rect fill="#F1F1F1" height="10" style="stroke:#181818;stroke-width:0.5;" width="15" x="789.1377" y="47"/><rect fill="#F1F1F1" height="2" style="stroke:#181818;stroke-width:0.5;" width="4" x="787.1377" y="49"/><rect fill="#F1F1F1" height="2" style="stroke:#181818;stroke-width:0.5;" width="4" x="787.1377" y="53"/><text fill="#000000" font-family="sans-serif" font-size="14" lengthAdjust="spacing" textLength="108.1377" x="676" y="76.5332">CreateActivity.tsx</text></g><!--entity DiagnosticResult.tsx--><g class="entity" data-entity="DiagnosticResult.tsx" data-source-line="6" data-uid="ent0007" id="entity_DiagnosticResult.tsx"><rect fill="#F1F1F1" height="47.6094" rx="2.5" ry="2.5" style="stroke:#181818;stroke-width:0.5;" width="166.8271" x="850.5" y="42"/><rect fill="#F1F1F1" height="10" style="stroke:#181818;stroke-width:0.5;" width="15" x="997.3271" y="47"/><rect fill="#F1F1F1" height="2" style="stroke:#181818;stroke-width:0.5;" width="4" x="995.3271" y="49"/><rect fill="#F1F1F1" height="2" style="stroke:#181818;stroke-width:0.5;" width="4" x="995.3271" y="53"/><text fill="#000000" font-family="sans-serif" font-size="14" lengthAdjust="spacing" textLength="126.8271" x="865.5" y="76.5332">DiagnosticResult.tsx</text></g><!--entity DiagnosticsList.tsx--><g class="entity" data-entity="DiagnosticsList.tsx" data-source-line="7" data-uid="ent0008" id="entity_DiagnosticsList.tsx"><rect fill="#F1F1F1" height="47.6094" rx="2.5" ry="2.5" style="stroke:#181818;stroke-width:0.5;" width="155.9307" x="22" y="150"/><rect fill="#F1F1F1" height="10" style="stroke:#181818;stroke-width:0.5;" width="15" x="157.9307" y="155"/><rect fill="#F1F1F1" height="2" style="stroke:#181818;stroke-width:0.5;" width="4" x="155.9307" y="157"/><rect fill="#F1F1F1" height="2" style="stroke:#181818;stroke-width:0.5;" width="4" x="155.9307" y="161"/><text fill="#000000" font-family="sans-serif" font-size="14" lengthAdjust="spacing" textLength="115.9307" x="37" y="184.5332">DiagnosticsList.tsx</text></g><!--entity EditActivityDialog.tsx--><g class="entity" data-entity="EditActivityDialog.tsx" data-source-line="8" data-uid="ent0009" id="entity_EditActivityDialog.tsx"><rect fill="#F1F1F1" height="47.6094" rx="2.5" ry="2.5" style="stroke:#181818;stroke-width:0.5;" width="169.9307" x="213" y="150"/><rect fill="#F1F1F1" height="10" style="stroke:#181818;stroke-width:0.5;" width="15" x="362.9307" y="155"/><rect fill="#F1F1F1" height="2" style="stroke:#181818;stroke-width:0.5;" width="4" x="360.9307" y="157"/><rect fill="#F1F1F1" height="2" style="stroke:#181818;stroke-width:0.5;" width="4" x="360.9307" y="161"/><text fill="#000000" font-family="sans-serif" font-size="14" lengthAdjust="spacing" textLength="129.9307" x="228" y="184.5332">EditActivityDialog.tsx</text></g><!--entity EditProfessionalDialog.tsx--><g class="entity" data-entity="EditProfessionalDialog.tsx" data-source-line="9" data-uid="ent0010" id="entity_EditProfessionalDialog.tsx"><rect fill="#F1F1F1" height="47.6094" rx="2.5" ry="2.5" style="stroke:#181818;stroke-width:0.5;" width="202.6338" x="418.5" y="150"/><rect fill="#F1F1F1" height="10" style="stroke:#181818;stroke-width:0.5;" width="15" x="601.1338" y="155"/><rect fill="#F1F1F1" height="2" style="stroke:#181818;stroke-width:0.5;" width="4" x="599.1338" y="157"/><rect fill="#F1F1F1" height="2" style="stroke:#181818;stroke-width:0.5;" width="4" x="599.1338" y="161"/><text fill="#000000" font-family="sans-serif" font-size="14" lengthAdjust="spacing" textLength="162.6338" x="433.5" y="184.5332">EditProfessionalDialog.tsx</text></g><!--entity EditStudentDialog.tsx--><g class="entity" data-entity="EditStudentDialog.tsx" data-source-line="10" data-uid="ent0011" id="entity_EditStudentDialog.tsx"><rect fill="#F1F1F1" height="47.6094" rx="2.5" ry="2.5" style="stroke:#181818;stroke-width:0.5;" width="173.8545" x="657" y="150"/><rect fill="#F1F1F1" height="10" style="stroke:#181818;stroke-width:0.5;" width="15" x="810.8545" y="155"/><rect fill="#F1F1F1" height="2" style="stroke:#181818;stroke-width:0.5;" width="4" x="808.8545" y="157"/><rect fill="#F1F1F1" height="2" style="stroke:#181818;stroke-width:0.5;" width="4" x="808.8545" y="161"/><text fill="#000000" font-family="sans-serif" font-size="14" lengthAdjust="spacing" textLength="133.8545" x="672" y="184.5332">EditStudentDialog.tsx</text></g><!--entity ExportReports.tsx--><g class="entity" data-entity="ExportReports.tsx" data-source-line="11" data-uid="ent0012" id="entity_ExportReports.tsx"><rect fill="#F1F1F1" height="47.6094" rx="2.5" ry="2.5" style="stroke:#181818;stroke-width:0.5;" width="151.2617" x="866.5" y="150"/><rect fill="#F1F1F1" height="10" style="stroke:#181818;stroke-width:0.5;" width="15" x="997.7617" y="155"/><rect fill="#F1F1F1" height="2" style="stroke:#181818;stroke-width:0.5;" width="4" x="995.7617" y="157"/><rect fill="#F1F1F1" height="2" style="stroke:#181818;stroke-width:0.5;" width="4" x="995.7617" y="161"/><text fill="#000000" font-family="sans-serif" font-size="14" lengthAdjust="spacing" textLength="111.2617" x="881.5" y="184.5332">ExportReports.tsx</text></g><!--entity LoginPage.tsx--><g class="entity" data-entity="LoginPage.tsx" data-source-line="12" data-uid="ent0013" id="entity_LoginPage.tsx"><rect fill="#F1F1F1" height="47.6094" rx="2.5" ry="2.5" style="stroke:#181818;stroke-width:0.5;" width="128.7305" x="36.5" y="258"/><rect fill="#F1F1F1" height="10" style="stroke:#181818;stroke-width:0.5;" width="15" x="145.2305" y="263"/><rect fill="#F1F1F1" height="2" style="stroke:#181818;stroke-width:0.5;" width="4" x="143.2305" y="265"/><rect fill="#F1F1F1" height="2" style="stroke:#181818;stroke-width:0.5;" width="4" x="143.2305" y="269"/><text fill="#000000" font-family="sans-serif" font-size="14" lengthAdjust="spacing" textLength="88.7305" x="51.5" y="292.5332">LoginPage.tsx</text></g><!--entity ProfessionalHome.tsx--><g class="entity" data-entity="ProfessionalHome.tsx" data-source-line="13" data-uid="ent0014" id="entity_ProfessionalHome.tsx"><rect fill="#F1F1F1" height="47.6094" rx="2.5" ry="2.5" style="stroke:#181818;stroke-width:0.5;" width="176.165" x="201" y="258"/><rect fill="#F1F1F1" height="10" style="stroke:#181818;stroke-width:0.5;" width="15" x="357.165" y="263"/><rect fill="#F1F1F1" height="2" style="stroke:#181818;stroke-width:0.5;" width="4" x="355.165" y="265"/><rect fill="#F1F1F1" height="2" style="stroke:#181818;stroke-width:0.5;" width="4" x="355.165" y="269"/><text fill="#000000" font-family="sans-serif" font-size="14" lengthAdjust="spacing" textLength="136.165" x="216" y="292.5332">ProfessionalHome.tsx</text></g><!--entity ReadingDetails.tsx--><g class="entity" data-entity="ReadingDetails.tsx" data-source-line="14" data-uid="ent0015" id="entity_ReadingDetails.tsx"><rect fill="#F1F1F1" height="47.6094" rx="2.5" ry="2.5" style="stroke:#181818;stroke-width:0.5;" width="156.7236" x="412.5" y="258"/><rect fill="#F1F1F1" height="10" style="stroke:#181818;stroke-width:0.5;" width="15" x="549.2236" y="263"/><rect fill="#F1F1F1" height="2" style="stroke:#181818;stroke-width:0.5;" width="4" x="547.2236" y="265"/><rect fill="#F1F1F1" height="2" style="stroke:#181818;stroke-width:0.5;" width="4" x="547.2236" y="269"/><text fill="#000000" font-family="sans-serif" font-size="14" lengthAdjust="spacing" textLength="116.7236" x="427.5" y="292.5332">ReadingDetails.tsx</text></g><!--entity ReadingProgress.tsx--><g class="entity" data-entity="ReadingProgress.tsx" data-source-line="15" data-uid="ent0016" id="entity_ReadingProgress.tsx"><rect fill="#F1F1F1" height="47.6094" rx="2.5" ry="2.5" style="stroke:#181818;stroke-width:0.5;" width="169.9512" x="605" y="258"/><rect fill="#F1F1F1" height="10" style="stroke:#181818;stroke-width:0.5;" width="15" x="754.9512" y="263"/><rect fill="#F1F1F1" height="2" style="stroke:#181818;stroke-width:0.5;" width="4" x="752.9512" y="265"/><rect fill="#F1F1F1" height="2" style="stroke:#181818;stroke-width:0.5;" width="4" x="752.9512" y="269"/><text fill="#000000" font-family="sans-serif" font-size="14" lengthAdjust="spacing" textLength="129.9512" x="620" y="292.5332">ReadingProgress.tsx</text></g><!--entity ReadingStory.tsx--><g class="entity" data-entity="ReadingStory.tsx" data-source-line="16" data-uid="ent0017" id="entity_ReadingStory.tsx"><rect fill="#F1F1F1" height="47.6094" rx="2.5" ry="2.5" style="stroke:#181818;stroke-width:0.5;" width="146.6064" x="810.5" y="258"/><rect fill="#F1F1F1" height="10" style="stroke:#181818;stroke-width:0.5;" width="15" x="937.1064" y="263"/><rect fill="#F1F1F1" height="2" style="stroke:#181818;stroke-width:0.5;" width="4" x="935.1064" y="265"/><rect fill="#F1F1F1" height="2" style="stroke:#181818;stroke-width:0.5;" width="4" x="935.1064" y="269"/><text fill="#000000" font-family="sans-serif" font-size="14" lengthAdjust="spacing" textLength="106.6064" x="825.5" y="292.5332">ReadingStory.tsx</text></g><!--entity ReadingTrail.tsx--><g class="entity" data-entity="ReadingTrail.tsx" data-source-line="17" data-uid="ent0018" id="entity_ReadingTrail.tsx"><rect fill="#F1F1F1" height="47.6094" rx="2.5" ry="2.5" style="stroke:#181818;stroke-width:0.5;" width="141.1514" x="32.5" y="366"/><rect fill="#F1F1F1" height="10" style="stroke:#181818;stroke-width:0.5;" width="15" x="153.6514" y="371"/><rect fill="#F1F1F1" height="2" style="stroke:#181818;stroke-width:0.5;" width="4" x="151.6514" y="373"/><rect fill="#F1F1F1" height="2" style="stroke:#181818;stroke-width:0.5;" width="4" x="151.6514" y="377"/><text fill="#000000" font-family="sans-serif" font-size="14" lengthAdjust="spacing" textLength="101.1514" x="47.5" y="400.5332">ReadingTrail.tsx</text></g><!--entity RecordingsList.tsx--><g class="entity" data-entity="RecordingsList.tsx" data-source-line="18" data-uid="ent0019" id="entity_RecordingsList.tsx"><rect fill="#F1F1F1" height="47.6094" rx="2.5" ry="2.5" style="stroke:#181818;stroke-width:0.5;" width="154.3789" x="209" y="366"/><rect fill="#F1F1F1" height="10" style="stroke:#181818;stroke-width:0.5;" width="15" x="343.3789" y="371"/><rect fill="#F1F1F1" height="2" style="stroke:#181818;stroke-width:0.5;" width="4" x="341.3789" y="373"/><rect fill="#F1F1F1" height="2" style="stroke:#181818;stroke-width:0.5;" width="4" x="341.3789" y="377"/><text fill="#000000" font-family="sans-serif" font-size="14" lengthAdjust="spacing" textLength="114.3789" x="224" y="400.5332">RecordingsList.tsx</text></g><!--entity ReportsAnalytics.tsx--><g class="entity" data-entity="ReportsAnalytics.tsx" data-source-line="19" data-uid="ent0020" id="entity_ReportsAnalytics.tsx"><rect fill="#F1F1F1" height="47.6094" rx="2.5" ry="2.5" style="stroke:#181818;stroke-width:0.5;" width="166.8203" x="398.5" y="366"/><rect fill="#F1F1F1" height="10" style="stroke:#181818;stroke-width:0.5;" width="15" x="545.3203" y="371"/><rect fill="#F1F1F1" height="2" style="stroke:#181818;stroke-width:0.5;" width="4" x="543.3203" y="373"/><rect fill="#F1F1F1" height="2" style="stroke:#181818;stroke-width:0.5;" width="4" x="543.3203" y="377"/><text fill="#000000" font-family="sans-serif" font-size="14" lengthAdjust="spacing" textLength="126.8203" x="413.5" y="400.5332">ReportsAnalytics.tsx</text></g><!--entity StudentDiagnostic.tsx--><g class="entity" data-entity="StudentDiagnostic.tsx" data-source-line="20" data-uid="ent0021" id="entity_StudentDiagnostic.tsx"><rect fill="#F1F1F1" height="47.6094" rx="2.5" ry="2.5" style="stroke:#181818;stroke-width:0.5;" width="175.4063" x="600.5" y="366"/><rect fill="#F1F1F1" height="10" style="stroke:#181818;stroke-width:0.5;" width="15" x="755.9063" y="371"/><rect fill="#F1F1F1" height="2" style="stroke:#181818;stroke-width:0.5;" width="4" x="753.9063" y="373"/><rect fill="#F1F1F1" height="2" style="stroke:#181818;stroke-width:0.5;" width="4" x="753.9063" y="377"/><text fill="#000000" font-family="sans-serif" font-size="14" lengthAdjust="spacing" textLength="135.4063" x="615.5" y="400.5332">StudentDiagnostic.tsx</text></g><!--entity StudentProfile.tsx--><g class="entity" data-entity="StudentProfile.tsx" data-source-line="21" data-uid="ent0022" id="entity_StudentProfile.tsx"><rect fill="#F1F1F1" height="47.6094" rx="2.5" ry="2.5" style="stroke:#181818;stroke-width:0.5;" width="149.7236" x="811" y="366"/><rect fill="#F1F1F1" height="10" style="stroke:#181818;stroke-width:0.5;" width="15" x="940.7236" y="371"/><rect fill="#F1F1F1" height="2" style="stroke:#181818;stroke-width:0.5;" width="4" x="938.7236" y="373"/><rect fill="#F1F1F1" height="2" style="stroke:#181818;stroke-width:0.5;" width="4" x="938.7236" y="377"/><text fill="#000000" font-family="sans-serif" font-size="14" lengthAdjust="spacing" textLength="109.7236" x="826" y="400.5332">StudentProfile.tsx</text></g><!--entity StudentTracking.tsx--><g class="entity" data-entity="StudentTracking.tsx" data-source-line="22" data-uid="ent0023" id="entity_StudentTracking.tsx"><rect fill="#F1F1F1" height="47.6094" rx="2.5" ry="2.5" style="stroke:#181818;stroke-width:0.5;" width="163.7236" x="22" y="474"/><rect fill="#F1F1F1" height="10" style="stroke:#181818;stroke-width:0.5;" width="15" x="165.7236" y="479"/><rect fill="#F1F1F1" height="2" style="stroke:#181818;stroke-width:0.5;" width="4" x="163.7236" y="481"/><rect fill="#F1F1F1" height="2" style="stroke:#181818;stroke-width:0.5;" width="4" x="163.7236" y="485"/><text fill="#000000" font-family="sans-serif" font-size="14" lengthAdjust="spacing" textLength="123.7236" x="37" y="508.5332">StudentTracking.tsx</text></g><!--entity TextAnalysis.tsx--><g class="entity" data-entity="TextAnalysis.tsx" data-source-line="23" data-uid="ent0024" id="entity_TextAnalysis.tsx"><rect fill="#F1F1F1" height="47.6094" rx="2.5" ry="2.5" style="stroke:#181818;stroke-width:0.5;" width="141.1377" x="221.5" y="474"/><rect fill="#F1F1F1" height="10" style="stroke:#181818;stroke-width:0.5;" width="15" x="342.6377" y="479"/><rect fill="#F1F1F1" height="2" style="stroke:#181818;stroke-width:0.5;" width="4" x="340.6377" y="481"/><rect fill="#F1F1F1" height="2" style="stroke:#181818;stroke-width:0.5;" width="4" x="340.6377" y="485"/><text fill="#000000" font-family="sans-serif" font-size="14" lengthAdjust="spacing" textLength="101.1377" x="236.5" y="508.5332">TextAnalysis.tsx</text></g><!--entity TextReader.tsx--><g class="entity" data-entity="TextReader.tsx" data-source-line="24" data-uid="ent0025" id="entity_TextReader.tsx"><rect fill="#F1F1F1" height="47.6094" rx="2.5" ry="2.5" style="stroke:#181818;stroke-width:0.5;" width="134.9238" x="397.5" y="474"/><rect fill="#F1F1F1" height="10" style="stroke:#181818;stroke-width:0.5;" width="15" x="512.4238" y="479"/><rect fill="#F1F1F1" height="2" style="stroke:#181818;stroke-width:0.5;" width="4" x="510.4238" y="481"/><rect fill="#F1F1F1" height="2" style="stroke:#181818;stroke-width:0.5;" width="4" x="510.4238" y="485"/><text fill="#000000" font-family="sans-serif" font-size="14" lengthAdjust="spacing" textLength="94.9238" x="412.5" y="508.5332">TextReader.tsx</text></g><!--entity activities/--><g class="entity" data-entity="activities." data-source-line="27" data-uid="ent0027" id="entity_activities."><rect fill="#F1F1F1" height="47.6094" rx="2.5" ry="2.5" style="stroke:#181818;stroke-width:0.5;" width="97.5723" x="1074" y="42"/><rect fill="#F1F1F1" height="10" style="stroke:#181818;stroke-width:0.5;" width="15" x="1151.5723" y="47"/><rect fill="#F1F1F1" height="2" style="stroke:#181818;stroke-width:0.5;" width="4" x="1149.5723" y="49"/><rect fill="#F1F1F1" height="2" style="stroke:#181818;stroke-width:0.5;" width="4" x="1149.5723" y="53"/><text fill="#000000" font-family="sans-serif" font-size="14" lengthAdjust="spacing" textLength="57.5723" x="1089" y="76.5332">activities/</text></g><!--entity auth/--><g class="entity" data-entity="auth." data-source-line="28" data-uid="ent0028" id="entity_auth."><rect fill="#F1F1F1" height="47.6094" rx="2.5" ry="2.5" style="stroke:#181818;stroke-width:0.5;" width="71.1377" x="1207.5" y="42"/><rect fill="#F1F1F1" height="10" style="stroke:#181818;stroke-width:0.5;" width="15" x="1258.6377" y="47"/><rect fill="#F1F1F1" height="2" style="stroke:#181818;stroke-width:0.5;" width="4" x="1256.6377" y="49"/><rect fill="#F1F1F1" height="2" style="stroke:#181818;stroke-width:0.5;" width="4" x="1256.6377" y="53"/><text fill="#000000" font-family="sans-serif" font-size="14" lengthAdjust="spacing" textLength="31.1377" x="1222.5" y="76.5332">auth/</text></g><!--entity diagnostics/--><g class="entity" data-entity="diagnostics." data-source-line="29" data-uid="ent0029" id="entity_diagnostics."><rect fill="#F1F1F1" height="47.6094" rx="2.5" ry="2.5" style="stroke:#181818;stroke-width:0.5;" width="113.9307" x="1314" y="42"/><rect fill="#F1F1F1" height="10" style="stroke:#181818;stroke-width:0.5;" width="15" x="1407.9307" y="47"/><rect fill="#F1F1F1" height="2" style="stroke:#181818;stroke-width:0.5;" width="4" x="1405.9307" y="49"/><rect fill="#F1F1F1" height="2" style="stroke:#181818;stroke-width:0.5;" width="4" x="1405.9307" y="53"/><text fill="#000000" font-family="sans-serif" font-size="14" lengthAdjust="spacing" textLength="73.9307" x="1329" y="76.5332">diagnostics/</text></g><!--entity reading/--><g class="entity" data-entity="reading." data-source-line="30" data-uid="ent0030" id="entity_reading."><rect fill="#F1F1F1" height="47.6094" rx="2.5" ry="2.5" style="stroke:#181818;stroke-width:0.5;" width="90.5928" x="1077.5" y="150"/><rect fill="#F1F1F1" height="10" style="stroke:#181818;stroke-width:0.5;" width="15" x="1148.0928" y="155"/><rect fill="#F1F1F1" height="2" style="stroke:#181818;stroke-width:0.5;" width="4" x="1146.0928" y="157"/><rect fill="#F1F1F1" height="2" style="stroke:#181818;stroke-width:0.5;" width="4" x="1146.0928" y="161"/><text fill="#000000" font-family="sans-serif" font-size="14" lengthAdjust="spacing" textLength="50.5928" x="1092.5" y="184.5332">reading/</text></g><!--entity reports/--><g class="entity" data-entity="reports." data-source-line="31" data-uid="ent0031" id="entity_reports."><rect fill="#F1F1F1" height="47.6094" rx="2.5" ry="2.5" style="stroke:#181818;stroke-width:0.5;" width="87.4619" x="1203.5" y="150"/><rect fill="#F1F1F1" height="10" style="stroke:#181818;stroke-width:0.5;" width="15" x="1270.9619" y="155"/><rect fill="#F1F1F1" height="2" style="stroke:#181818;stroke-width:0.5;" width="4" x="1268.9619" y="157"/><rect fill="#F1F1F1" height="2" style="stroke:#181818;stroke-width:0.5;" width="4" x="1268.9619" y="161"/><text fill="#000000" font-family="sans-serif" font-size="14" lengthAdjust="spacing" textLength="47.4619" x="1218.5" y="184.5332">reports/</text></g><!--entity students/--><g class="entity" data-entity="students." data-source-line="32" data-uid="ent0032" id="entity_students."><rect fill="#F1F1F1" height="47.6094" rx="2.5" ry="2.5" style="stroke:#181818;stroke-width:0.5;" width="96.8135" x="1325.5" y="150"/><rect fill="#F1F1F1" height="10" style="stroke:#181818;stroke-width:0.5;" width="15" x="1402.3135" y="155"/><rect fill="#F1F1F1" height="2" style="stroke:#181818;stroke-width:0.5;" width="4" x="1400.3135" y="157"/><rect fill="#F1F1F1" height="2" style="stroke:#181818;stroke-width:0.5;" width="4" x="1400.3135" y="161"/><text fill="#000000" font-family="sans-serif" font-size="14" lengthAdjust="spacing" textLength="56.8135" x="1340.5" y="184.5332">students/</text></g><!--entity trails/--><g class="entity" data-entity="trails." data-source-line="33" data-uid="ent0033" id="entity_trails."><rect fill="#F1F1F1" height="47.6094" rx="2.5" ry="2.5" style="stroke:#181818;stroke-width:0.5;" width="73.4482" x="1086.5" y="258"/><rect fill="#F1F1F1" height="10" style="stroke:#181818;stroke-width:0.5;" width="15" x="1139.9482" y="263"/><rect fill="#F1F1F1" height="2" style="stroke:#181818;stroke-width:0.5;" width="4" x="1137.9482" y="265"/><rect fill="#F1F1F1" height="2" style="stroke:#181818;stroke-width:0.5;" width="4" x="1137.9482" y="269"/><text fill="#000000" font-family="sans-serif" font-size="14" lengthAdjust="spacing" textLength="33.4482" x="1101.5" y="292.5332">trails/</text></g><!--entity button.tsx--><g class="entity" data-entity="button.tsx" data-source-line="36" data-uid="ent0035" id="entity_button.tsx"><rect fill="#F1F1F1" height="47.6094" rx="2.5" ry="2.5" style="stroke:#181818;stroke-width:0.5;" width="100.7031" x="53.5" y="598"/><rect fill="#F1F1F1" height="10" style="stroke:#181818;stroke-width:0.5;" width="15" x="134.2031" y="603"/><rect fill="#F1F1F1" height="2" style="stroke:#181818;stroke-width:0.5;" width="4" x="132.2031" y="605"/><rect fill="#F1F1F1" height="2" style="stroke:#181818;stroke-width:0.5;" width="4" x="132.2031" y="609"/><text fill="#000000" font-family="sans-serif" font-size="14" lengthAdjust="spacing" textLength="60.7031" x="68.5" y="632.5332">button.tsx</text></g><!--entity input.tsx--><g class="entity" data-entity="input.tsx" data-source-line="37" data-uid="ent0036" id="entity_input.tsx"><rect fill="#F1F1F1" height="47.6094" rx="2.5" ry="2.5" style="stroke:#181818;stroke-width:0.5;" width="92.1377" x="190" y="598"/><rect fill="#F1F1F1" height="10" style="stroke:#181818;stroke-width:0.5;" width="15" x="262.1377" y="603"/><rect fill="#F1F1F1" height="2" style="stroke:#181818;stroke-width:0.5;" width="4" x="260.1377" y="605"/><rect fill="#F1F1F1" height="2" style="stroke:#181818;stroke-width:0.5;" width="4" x="260.1377" y="609"/><text fill="#000000" font-family="sans-serif" font-size="14" lengthAdjust="spacing" textLength="52.1377" x="205" y="632.5332">input.tsx</text></g><!--entity dialog.tsx--><g class="entity" data-entity="dialog.tsx" data-source-line="38" data-uid="ent0037" id="entity_dialog.tsx"><rect fill="#F1F1F1" height="47.6094" rx="2.5" ry="2.5" style="stroke:#181818;stroke-width:0.5;" width="99.1445" x="317.5" y="598"/><rect fill="#F1F1F1" height="10" style="stroke:#181818;stroke-width:0.5;" width="15" x="396.6445" y="603"/><rect fill="#F1F1F1" height="2" style="stroke:#181818;stroke-width:0.5;" width="4" x="394.6445" y="605"/><rect fill="#F1F1F1" height="2" style="stroke:#181818;stroke-width:0.5;" width="4" x="394.6445" y="609"/><text fill="#000000" font-family="sans-serif" font-size="14" lengthAdjust="spacing" textLength="59.1445" x="332.5" y="632.5332">dialog.tsx</text></g><!--entity card.tsx--><g class="entity" data-entity="card.tsx" data-source-line="39" data-uid="ent0038" id="entity_card.tsx"><rect fill="#F1F1F1" height="47.6094" rx="2.5" ry="2.5" style="stroke:#181818;stroke-width:0.5;" width="89.0137" x="59.5" y="706"/><rect fill="#F1F1F1" height="10" style="stroke:#181818;stroke-width:0.5;" width="15" x="128.5137" y="711"/><rect fill="#F1F1F1" height="2" style="stroke:#181818;stroke-width:0.5;" width="4" x="126.5137" y="713"/><rect fill="#F1F1F1" height="2" style="stroke:#181818;stroke-width:0.5;" width="4" x="126.5137" y="717"/><text fill="#000000" font-family="sans-serif" font-size="14" lengthAdjust="spacing" textLength="49.0137" x="74.5" y="740.5332">card.tsx</text></g><!--entity table.tsx--><g class="entity" data-entity="table.tsx" data-source-line="40" data-uid="ent0039" id="entity_table.tsx"><rect fill="#F1F1F1" height="47.6094" rx="2.5" ry="2.5" style="stroke:#181818;stroke-width:0.5;" width="92.1377" x="184" y="706"/><rect fill="#F1F1F1" height="10" style="stroke:#181818;stroke-width:0.5;" width="15" x="256.1377" y="711"/><rect fill="#F1F1F1" height="2" style="stroke:#181818;stroke-width:0.5;" width="4" x="254.1377" y="713"/><rect fill="#F1F1F1" height="2" style="stroke:#181818;stroke-width:0.5;" width="4" x="254.1377" y="717"/><text fill="#000000" font-family="sans-serif" font-size="14" lengthAdjust="spacing" textLength="52.1377" x="199" y="740.5332">table.tsx</text></g><!--entity chart.tsx--><g class="entity" data-entity="chart.tsx" data-source-line="41" data-uid="ent0040" id="entity_chart.tsx"><rect fill="#F1F1F1" height="47.6094" rx="2.5" ry="2.5" style="stroke:#181818;stroke-width:0.5;" width="92.9033" x="311.5" y="706"/><rect fill="#F1F1F1" height="10" style="stroke:#181818;stroke-width:0.5;" width="15" x="384.4033" y="711"/><rect fill="#F1F1F1" height="2" style="stroke:#181818;stroke-width:0.5;" width="4" x="382.4033" y="713"/><rect fill="#F1F1F1" height="2" style="stroke:#181818;stroke-width:0.5;" width="4" x="382.4033" y="717"/><text fill="#000000" font-family="sans-serif" font-size="14" lengthAdjust="spacing" textLength="52.9033" x="326.5" y="740.5332">chart.tsx</text></g><!--entity etc...--><g class="entity" data-entity="etc..." data-source-line="42" data-uid="ent0041" id="entity_etc..."><rect fill="#F1F1F1" height="47.6094" rx="2.5" ry="2.5" style="stroke:#181818;stroke-width:0.5;" width="70.3447" x="452" y="598"/><rect fill="#F1F1F1" height="10" style="stroke:#181818;stroke-width:0.5;" width="15" x="502.3447" y="603"/><rect fill="#F1F1F1" height="2" style="stroke:#181818;stroke-width:0.5;" width="4" x="500.3447" y="605"/><rect fill="#F1F1F1" height="2" style="stroke:#181818;stroke-width:0.5;" width="4" x="500.3447" y="609"/><text fill="#000000" font-family="sans-serif" font-size="14" lengthAdjust="spacing" textLength="30.3447" x="467" y="632.5332">etc...</text></g><g class="entity" data-entity="GMN42" data-source-line="44" data-uid="ent0043" id="entity_GMN42"><path d="M557.5,609 L557.5,618 L522.17,622 L557.5,626 L557.5,635.3516 A0,0 0 0 0 557.5,635.3516 L938.3613,635.3516 A0,0 0 0 0 938.3613,635.3516 L938.3613,619 L928.3613,609 L557.5,609 A0,0 0 0 0 557.5,609" fill="#FEFFDD" style="stroke:#181818;stroke-width:0.5;"/><path d="M928.3613,609 L928.3613,619 L938.3613,619 L928.3613,609" fill="#FEFFDD" style="stroke:#181818;stroke-width:0.5;"/><text fill="#000000" font-family="sans-serif" font-size="13" lengthAdjust="spacing" textLength="359.8613" x="563.5" y="627.4951">Esta &#225;rvore lista componentes principais e grupos de features.</text></g><!--SRC=[TP8nRkim38RtdaBer0xFsRiLJO0tT2ZIR4K7HM8Seefea7IGeEXXUfPUh5Bio8wHBeRu4IH__kQ6WWSsjy9kvcZNK8IeOkvMrFmBi8TmVsi-RunvUtIAUrG4UKRHIkNmViBUlshhKz4SRQ1wbDXXd5lPhicoB_Y9mIhqpOu5f-8waYYw9KWRz4hYSkx2evwxJ2Rdr0lJ1aIGeWrNqjSbBmuDiIuXVwNGPwenljWQ2Xat_q-x8R44wp7MSr2BGQOubTMSwgRyLOcFKxZYr6847N76boRqKX-JZcDsg2I6_Nhpffcy0WQOuZJLVQGnXQ_WeAVsWd81iqpW3dtTRAvUqMoJ_dMRLkvFo9OJcftws5QttSiFVxa3tBbm3avhTe5qIlj8iqtv_QU65llfwrQLOba2OzCEJlhBIt3ZarMx7ZdbjfQ7Eb1NLLKU7qd1CDPRVJ0BKMj-ldbF32PWZeeY4DCmHeUDHJ5WQcuR4kF1dDsgVW40]--></g></svg>