<svg xmlns="http://www.w3.org/2000/svg" xmlns:xlink="http://www.w3.org/1999/xlink" contentStyleType="text/css" data-diagram-type="SEQUENCE" height="465px" preserveAspectRatio="none" style="width:1019px;height:465px;background:#FFFFFF;" version="1.1" viewBox="0 0 1019 465" width="1019px" zoomAndPan="magnify"><defs/><g><g><title>Profissional</title><rect fill="#000000" fill-opacity="0.00000" height="300.5156" width="8" x="40.1826" y="82.6094"/><line style="stroke:#181818;stroke-width:0.5;stroke-dasharray:5,5;" x1="44" x2="44" y1="82.6094" y2="383.125"/></g><g><title>DiagnosticsList</title><rect fill="#000000" fill-opacity="0.00000" height="300.5156" width="8" x="267.2632" y="82.6094"/><line style="stroke:#181818;stroke-width:0.5;stroke-dasharray:5,5;" x1="271.1875" x2="271.1875" y1="82.6094" y2="383.125"/></g><g><title>StudentDiagnostic</title><rect fill="#000000" fill-opacity="0.00000" height="300.5156" width="8" x="395.1523" y="82.6094"/><line style="stroke:#181818;stroke-width:0.5;stroke-dasharray:5,5;" x1="398.3389" x2="398.3389" y1="82.6094" y2="383.125"/></g><g><title>DiagnosticResult</title><rect fill="#000000" fill-opacity="0.00000" height="300.5156" width="8" x="606.6621" y="82.6094"/><line style="stroke:#181818;stroke-width:0.5;stroke-dasharray:5,5;" x1="610.1382" x2="610.1382" y1="82.6094" y2="383.125"/></g><g><title>AI</title><rect fill="#000000" fill-opacity="0.00000" height="300.5156" width="8" x="821.4155" y="82.6094"/><line style="stroke:#181818;stroke-width:0.5;stroke-dasharray:5,5;" x1="824.8018" x2="824.8018" y1="82.6094" y2="383.125"/></g><g><title>Reports</title><rect fill="#000000" fill-opacity="0.00000" height="300.5156" width="8" x="876.5396" y="82.6094"/><line style="stroke:#181818;stroke-width:0.5;stroke-dasharray:5,5;" x1="880.0293" x2="880.0293" y1="82.6094" y2="383.125"/></g><g class="participant participant-head" data-participant="Prof"><text fill="#000000" font-family="sans-serif" font-size="14" lengthAdjust="spacing" textLength="72.3652" x="5" y="79.5332">Profissional</text><ellipse cx="44.1826" cy="13.5" fill="#E2E2F0" rx="8" ry="8" style="stroke:#181818;stroke-width:0.5;"/><path d="M44.1826,21.5 L44.1826,48.5 M31.1826,29.5 L57.1826,29.5 M44.1826,48.5 L31.1826,63.5 M44.1826,48.5 L57.1826,63.5" fill="none" style="stroke:#181818;stroke-width:0.5;"/></g><g class="participant participant-tail" data-participant="Prof"><text fill="#000000" font-family="sans-serif" font-size="14" lengthAdjust="spacing" textLength="72.3652" x="5" y="396.6582">Profissional</text><ellipse cx="44.1826" cy="408.2344" fill="#E2E2F0" rx="8" ry="8" style="stroke:#181818;stroke-width:0.5;"/><path d="M44.1826,416.2344 L44.1826,443.2344 M31.1826,424.2344 L57.1826,424.2344 M44.1826,443.2344 L31.1826,458.2344 M44.1826,443.2344 L57.1826,458.2344" fill="none" style="stroke:#181818;stroke-width:0.5;"/></g><g class="participant participant-head" data-participant="DiagnosticsList"><rect fill="#E2E2F0" height="31.6094" rx="2.5" ry="2.5" style="stroke:#181818;stroke-width:0.5;" width="108.1514" x="217.1875" y="50"/><text fill="#000000" font-family="sans-serif" font-size="14" lengthAdjust="spacing" textLength="94.1514" x="224.1875" y="71.5332">DiagnosticsList</text></g><g class="participant participant-tail" data-participant="DiagnosticsList"><rect fill="#E2E2F0" height="31.6094" rx="2.5" ry="2.5" style="stroke:#181818;stroke-width:0.5;" width="108.1514" x="217.1875" y="382.125"/><text fill="#000000" font-family="sans-serif" font-size="14" lengthAdjust="spacing" textLength="94.1514" x="224.1875" y="403.6582">DiagnosticsList</text></g><g class="participant participant-head" data-participant="StudentDiagnostic"><rect fill="#E2E2F0" height="31.6094" rx="2.5" ry="2.5" style="stroke:#181818;stroke-width:0.5;" width="127.627" x="335.3389" y="50"/><text fill="#000000" font-family="sans-serif" font-size="14" lengthAdjust="spacing" textLength="113.627" x="342.3389" y="71.5332">StudentDiagnostic</text></g><g class="participant participant-tail" data-participant="StudentDiagnostic"><rect fill="#E2E2F0" height="31.6094" rx="2.5" ry="2.5" style="stroke:#181818;stroke-width:0.5;" width="127.627" x="335.3389" y="382.125"/><text fill="#000000" font-family="sans-serif" font-size="14" lengthAdjust="spacing" textLength="113.627" x="342.3389" y="403.6582">StudentDiagnostic</text></g><g class="participant participant-head" data-participant="DiagnosticResult"><rect fill="#E2E2F0" height="31.6094" rx="2.5" ry="2.5" style="stroke:#181818;stroke-width:0.5;" width="119.0479" x="551.1382" y="50"/><text fill="#000000" font-family="sans-serif" font-size="14" lengthAdjust="spacing" textLength="105.0479" x="558.1382" y="71.5332">DiagnosticResult</text></g><g class="participant participant-tail" data-participant="DiagnosticResult"><rect fill="#E2E2F0" height="31.6094" rx="2.5" ry="2.5" style="stroke:#181818;stroke-width:0.5;" width="119.0479" x="551.1382" y="382.125"/><text fill="#000000" font-family="sans-serif" font-size="14" lengthAdjust="spacing" textLength="105.0479" x="558.1382" y="403.6582">DiagnosticResult</text></g><g class="participant participant-head" data-participant="AI"><rect fill="#E2E2F0" height="31.6094" rx="2.5" ry="2.5" style="stroke:#181818;stroke-width:0.5;" width="27.2275" x="811.8018" y="50"/><text fill="#000000" font-family="sans-serif" font-size="14" lengthAdjust="spacing" textLength="13.2275" x="818.8018" y="71.5332">AI</text></g><g class="participant participant-tail" data-participant="AI"><rect fill="#E2E2F0" height="31.6094" rx="2.5" ry="2.5" style="stroke:#181818;stroke-width:0.5;" width="27.2275" x="811.8018" y="382.125"/><text fill="#000000" font-family="sans-serif" font-size="14" lengthAdjust="spacing" textLength="13.2275" x="818.8018" y="403.6582">AI</text></g><g class="participant participant-head" data-participant="Reports"><rect fill="#E2E2F0" height="31.6094" rx="2.5" ry="2.5" style="stroke:#181818;stroke-width:0.5;" width="63.0205" x="849.0293" y="50"/><text fill="#000000" font-family="sans-serif" font-size="14" lengthAdjust="spacing" textLength="49.0205" x="856.0293" y="71.5332">Reports</text></g><g class="participant participant-tail" data-participant="Reports"><rect fill="#E2E2F0" height="31.6094" rx="2.5" ry="2.5" style="stroke:#181818;stroke-width:0.5;" width="63.0205" x="849.0293" y="382.125"/><text fill="#000000" font-family="sans-serif" font-size="14" lengthAdjust="spacing" textLength="49.0205" x="856.0293" y="403.6582">Reports</text></g><g class="message" data-participant-1="Prof" data-participant-2="DiagnosticsList"><polygon fill="#181818" points="259.2632,110.9609,269.2632,114.9609,259.2632,118.9609,263.2632,114.9609" style="stroke:#181818;stroke-width:1;"/><line style="stroke:#181818;stroke-width:1;" x1="44.1826" x2="265.2632" y1="114.9609" y2="114.9609"/><text fill="#000000" font-family="sans-serif" font-size="13" lengthAdjust="spacing" textLength="203.0806" x="51.1826" y="110.1045">selecionar aluno / novo diagn&#243;stico</text></g><g class="message" data-participant-1="DiagnosticsList" data-participant-2="StudentDiagnostic"><polygon fill="#181818" points="387.1523,141.3125,397.1523,145.3125,387.1523,149.3125,391.1523,145.3125" style="stroke:#181818;stroke-width:1;"/><line style="stroke:#181818;stroke-width:1;" x1="271.2632" x2="393.1523" y1="145.3125" y2="145.3125"/><text fill="#000000" font-family="sans-serif" font-size="13" lengthAdjust="spacing" textLength="87.4136" x="278.2632" y="140.4561">abrir formul&#225;rio</text></g><g class="message" data-participant-1="StudentDiagnostic" data-participant-2="StudentDiagnostic"><line style="stroke:#181818;stroke-width:1;" x1="399.1523" x2="441.1523" y1="175.6641" y2="175.6641"/><line style="stroke:#181818;stroke-width:1;" x1="441.1523" x2="441.1523" y1="175.6641" y2="188.6641"/><line style="stroke:#181818;stroke-width:1;" x1="400.1523" x2="441.1523" y1="188.6641" y2="188.6641"/><polygon fill="#181818" points="410.1523,184.6641,400.1523,188.6641,410.1523,192.6641,406.1523,188.6641" style="stroke:#181818;stroke-width:1;"/><text fill="#000000" font-family="sans-serif" font-size="13" lengthAdjust="spacing" textLength="160.4243" x="406.1523" y="170.8076">preencher perguntas (state)</text></g><g class="message" data-participant-1="StudentDiagnostic" data-participant-2="DiagnosticResult"><polygon fill="#181818" points="598.6621,215.0156,608.6621,219.0156,598.6621,223.0156,602.6621,219.0156" style="stroke:#181818;stroke-width:1;"/><line style="stroke:#181818;stroke-width:1;" x1="399.1523" x2="604.6621" y1="219.0156" y2="219.0156"/><text fill="#000000" font-family="sans-serif" font-size="13" lengthAdjust="spacing" textLength="187.5098" x="406.1523" y="214.1592">setDiagnosticData + showResult</text></g><g class="message" data-participant-1="DiagnosticResult" data-participant-2="AI"><polygon fill="#181818" points="813.4155,245.3672,823.4155,249.3672,813.4155,253.3672,817.4155,249.3672" style="stroke:#181818;stroke-width:1;"/><line style="stroke:#181818;stroke-width:1;" x1="610.6621" x2="819.4155" y1="249.3672" y2="249.3672"/><text fill="#000000" font-family="sans-serif" font-size="13" lengthAdjust="spacing" textLength="190.7534" x="617.6621" y="244.5107">gerar recomenda&#231;&#245;es (simulado)</text></g><g class="message" data-participant-1="DiagnosticResult" data-participant-2="Reports"><polygon fill="#181818" points="868.5396,275.7188,878.5396,279.7188,868.5396,283.7188,872.5396,279.7188" style="stroke:#181818;stroke-width:1;"/><line style="stroke:#181818;stroke-width:1;" x1="610.6621" x2="874.5396" y1="279.7188" y2="279.7188"/><text fill="#000000" font-family="sans-serif" font-size="13" lengthAdjust="spacing" textLength="169.7998" x="617.6621" y="274.8623">exportar relat&#243;rio / criar plano</text></g><g class="message" data-participant-1="DiagnosticResult" data-participant-2="Prof"><polygon fill="#181818" points="55.1826,333.5977,45.1826,337.5977,55.1826,341.5977,51.1826,337.5977" style="stroke:#181818;stroke-width:1;"/><line style="stroke:#181818;stroke-width:1;stroke-dasharray:2,2;" x1="49.1826" x2="609.6621" y1="337.5977" y2="337.5977"/><text fill="#000000" font-family="sans-serif" font-size="13" lengthAdjust="spacing" textLength="270.2388" x="61.1826" y="332.7412">apresentar relat&#243;rio (gr&#225;ficos, recomenda&#231;&#245;es)</text></g><path d="M615,292.7188 L615,367.7188 L1012,367.7188 L1012,302.7188 L1002,292.7188 L615,292.7188" fill="#FEFFDD" style="stroke:#181818;stroke-width:0.5;"/><path d="M1002,292.7188 L1002,302.7188 L1012,302.7188 L1002,292.7188" fill="#FEFFDD" style="stroke:#181818;stroke-width:0.5;"/><text fill="#000000" font-family="sans-serif" font-size="13" lengthAdjust="spacing" textLength="143.0762" x="621" y="311.2139">Componentes principais:</text><text fill="#000000" font-family="sans-serif" font-size="13" lengthAdjust="spacing" textLength="376.4414" x="621" y="327.5654">[`StudentDiagnostic`](../..//src/components/StudentDiagnostic.tsx)</text><text fill="#000000" font-family="sans-serif" font-size="13" lengthAdjust="spacing" textLength="360.5088" x="621" y="343.917">[`DiagnosticResult`](../..//src/components/DiagnosticResult.tsx)</text><text fill="#000000" font-family="sans-serif" font-size="13" lengthAdjust="spacing" textLength="340.2725" x="621" y="360.2686">[`DiagnosticsList`](../..//src/components/DiagnosticsList.tsx)</text><!--SRC=[ZPB1IiD048RlUOgXfmQrkVSWYBq87gGULUYwcQOBsvqmiz6-Jay-GF49ycBEfaWrIQ6GmsRpVr_sdyJOI0nFJ6im0fEqS2AEWl6JhDk-kOM5CrKWYSxAevC8Sn3qQ5EAmVWc41GGw8EWJCdsaAAKzJ4rFSUcn11FJzHbtjanh8ctZM_tx2WRfiwWDIC6kq666hbgGjGEKuacOZukETqjKHf_hF8dip3Hm1N8XZwFWMn0gENkGRaAMTipMjfYA4txrNvZUhlJ6gQaV9HSOaqSHN7SfLLdy2Qs1-sjGxJiTAls9j08huBka-ZCjBbek__yjE9slzRHotN_O7aMA2AmgpPn3lUqhIaehoUksGNhQkDa_XfULeEnhTwcircXLo5i2_jBIZ58pgBiykJed_oieXySCNI_pWM2BjVnFm00]--></g></svg>