<svg xmlns="http://www.w3.org/2000/svg" xmlns:xlink="http://www.w3.org/1999/xlink" contentStyleType="text/css" data-diagram-type="DESCRIPTION" height="466px" preserveAspectRatio="none" style="width:647px;height:466px;background:#FFFFFF;" version="1.1" viewBox="0 0 647 466" width="647px" zoomAndPan="magnify"><defs/><g><!--cluster hooks--><g class="cluster" data-entity="hooks" data-source-line="1" data-uid="ent0002" id="cluster_hooks"><path d="M8.5,79 L50.7275,79 A3.75,3.75 0 0 1 53.2275,81.5 L60.2275,102.6094 L315.5,102.6094 A2.5,2.5 0 0 1 318,105.1094 L318,348.5 A2.5,2.5 0 0 1 315.5,351 L8.5,351 A2.5,2.5 0 0 1 6,348.5 L6,81.5 A2.5,2.5 0 0 1 8.5,79" fill="none" style="stroke:#000000;stroke-width:1.5;"/><line style="stroke:#000000;stroke-width:1.5;" x1="6" x2="60.2275" y1="102.6094" y2="102.6094"/><text fill="#000000" font-family="sans-serif" font-size="14" font-weight="bold" lengthAdjust="spacing" textLength="41.2275" x="10" y="95.5332">hooks</text></g><!--cluster utils--><g class="cluster" data-entity="utils" data-source-line="6" data-uid="ent0006" id="cluster_utils"><path d="M360.5,235 L390.2793,235 A3.75,3.75 0 0 1 392.7793,237.5 L399.7793,258.6094 L637.5,258.6094 A2.5,2.5 0 0 1 640,261.1094 L640,456.5 A2.5,2.5 0 0 1 637.5,459 L360.5,459 A2.5,2.5 0 0 1 358,456.5 L358,237.5 A2.5,2.5 0 0 1 360.5,235" fill="none" style="stroke:#000000;stroke-width:1.5;"/><line style="stroke:#000000;stroke-width:1.5;" x1="358" x2="399.7793" y1="258.6094" y2="258.6094"/><text fill="#000000" font-family="sans-serif" font-size="14" font-weight="bold" lengthAdjust="spacing" textLength="28.7793" x="362" y="251.5332">utils</text></g><!--cluster types--><g class="cluster" data-entity="types" data-source-line="12" data-uid="ent0011" id="cluster_types"><path d="M411.5,79 L449.0723,79 A3.75,3.75 0 0 1 451.5723,81.5 L458.5723,102.6094 L561.5,102.6094 A2.5,2.5 0 0 1 564,105.1094 L564,192.5 A2.5,2.5 0 0 1 561.5,195 L411.5,195 A2.5,2.5 0 0 1 409,192.5 L409,81.5 A2.5,2.5 0 0 1 411.5,79" fill="none" style="stroke:#000000;stroke-width:1.5;"/><line style="stroke:#000000;stroke-width:1.5;" x1="409" x2="458.5723" y1="102.6094" y2="102.6094"/><text fill="#000000" font-family="sans-serif" font-size="14" font-weight="bold" lengthAdjust="spacing" textLength="36.5723" x="413" y="95.5332">types</text></g><!--entity useAuth--><g class="entity" data-entity="useAuth" data-source-line="2" data-uid="ent0003" id="entity_useAuth"><rect fill="#F1F1F1" height="47.6094" rx="2.5" ry="2.5" style="stroke:#181818;stroke-width:0.5;" width="91.3721" x="30.5" y="123"/><rect fill="#F1F1F1" height="10" style="stroke:#181818;stroke-width:0.5;" width="15" x="101.8721" y="128"/><rect fill="#F1F1F1" height="2" style="stroke:#181818;stroke-width:0.5;" width="4" x="99.8721" y="130"/><rect fill="#F1F1F1" height="2" style="stroke:#181818;stroke-width:0.5;" width="4" x="99.8721" y="134"/><text fill="#000000" font-family="sans-serif" font-size="14" lengthAdjust="spacing" textLength="51.3721" x="45.5" y="157.5332">useAuth</text></g><!--entity useStudents--><g class="entity" data-entity="useStudents" data-source-line="3" data-uid="ent0004" id="entity_useStudents"><rect fill="#F1F1F1" height="47.6094" rx="2.5" ry="2.5" style="stroke:#181818;stroke-width:0.5;" width="117.834" x="157" y="123"/><rect fill="#F1F1F1" height="10" style="stroke:#181818;stroke-width:0.5;" width="15" x="254.834" y="128"/><rect fill="#F1F1F1" height="2" style="stroke:#181818;stroke-width:0.5;" width="4" x="252.834" y="130"/><rect fill="#F1F1F1" height="2" style="stroke:#181818;stroke-width:0.5;" width="4" x="252.834" y="134"/><text fill="#000000" font-family="sans-serif" font-size="14" lengthAdjust="spacing" textLength="77.834" x="172" y="157.5332">useStudents</text></g><!--entity useActivities--><g class="entity" data-entity="useActivities" data-source-line="4" data-uid="ent0005" id="entity_useActivities"><rect fill="#F1F1F1" height="47.6094" rx="2.5" ry="2.5" style="stroke:#181818;stroke-width:0.5;" width="117.8066" x="30" y="279"/><rect fill="#F1F1F1" height="10" style="stroke:#181818;stroke-width:0.5;" width="15" x="127.8066" y="284"/><rect fill="#F1F1F1" height="2" style="stroke:#181818;stroke-width:0.5;" width="4" x="125.8066" y="286"/><rect fill="#F1F1F1" height="2" style="stroke:#181818;stroke-width:0.5;" width="4" x="125.8066" y="290"/><text fill="#000000" font-family="sans-serif" font-size="14" lengthAdjust="spacing" textLength="77.8066" x="45" y="313.5332">useActivities</text></g><!--entity constants--><g class="entity" data-entity="constants" data-source-line="7" data-uid="ent0007" id="entity_constants"><rect fill="#F1F1F1" height="47.6094" rx="2.5" ry="2.5" style="stroke:#181818;stroke-width:0.5;" width="99.9238" x="401" y="279"/><rect fill="#F1F1F1" height="10" style="stroke:#181818;stroke-width:0.5;" width="15" x="480.9238" y="284"/><rect fill="#F1F1F1" height="2" style="stroke:#181818;stroke-width:0.5;" width="4" x="478.9238" y="286"/><rect fill="#F1F1F1" height="2" style="stroke:#181818;stroke-width:0.5;" width="4" x="478.9238" y="290"/><text fill="#000000" font-family="sans-serif" font-size="14" lengthAdjust="spacing" textLength="59.9238" x="416" y="313.5332">constants</text></g><!--entity format--><g class="entity" data-entity="format" data-source-line="8" data-uid="ent0008" id="entity_format"><rect fill="#F1F1F1" height="47.6094" rx="2.5" ry="2.5" style="stroke:#181818;stroke-width:0.5;" width="79.6758" x="536" y="279"/><rect fill="#F1F1F1" height="10" style="stroke:#181818;stroke-width:0.5;" width="15" x="595.6758" y="284"/><rect fill="#F1F1F1" height="2" style="stroke:#181818;stroke-width:0.5;" width="4" x="593.6758" y="286"/><rect fill="#F1F1F1" height="2" style="stroke:#181818;stroke-width:0.5;" width="4" x="593.6758" y="290"/><text fill="#000000" font-family="sans-serif" font-size="14" lengthAdjust="spacing" textLength="39.6758" x="551" y="313.5332">format</text></g><!--entity helpers--><g class="entity" data-entity="helpers" data-source-line="9" data-uid="ent0009" id="entity_helpers"><rect fill="#F1F1F1" height="47.6094" rx="2.5" ry="2.5" style="stroke:#181818;stroke-width:0.5;" width="85.917" x="395" y="387"/><rect fill="#F1F1F1" height="10" style="stroke:#181818;stroke-width:0.5;" width="15" x="460.917" y="392"/><rect fill="#F1F1F1" height="2" style="stroke:#181818;stroke-width:0.5;" width="4" x="458.917" y="394"/><rect fill="#F1F1F1" height="2" style="stroke:#181818;stroke-width:0.5;" width="4" x="458.917" y="398"/><text fill="#000000" font-family="sans-serif" font-size="14" lengthAdjust="spacing" textLength="45.917" x="410" y="421.5332">helpers</text></g><!--entity validation--><g class="entity" data-entity="validation" data-source-line="10" data-uid="ent0010" id="entity_validation"><rect fill="#F1F1F1" height="47.6094" rx="2.5" ry="2.5" style="stroke:#181818;stroke-width:0.5;" width="99.1514" x="516.5" y="387"/><rect fill="#F1F1F1" height="10" style="stroke:#181818;stroke-width:0.5;" width="15" x="595.6514" y="392"/><rect fill="#F1F1F1" height="2" style="stroke:#181818;stroke-width:0.5;" width="4" x="593.6514" y="394"/><rect fill="#F1F1F1" height="2" style="stroke:#181818;stroke-width:0.5;" width="4" x="593.6514" y="398"/><text fill="#000000" font-family="sans-serif" font-size="14" lengthAdjust="spacing" textLength="59.1514" x="531.5" y="421.5332">validation</text></g><!--entity index.ts--><g class="entity" data-entity="index.ts" data-source-line="13" data-uid="ent0012" id="entity_index.ts"><rect fill="#F1F1F1" height="47.6094" rx="2.5" ry="2.5" style="stroke:#181818;stroke-width:0.5;" width="88.248" x="452" y="123"/><rect fill="#F1F1F1" height="10" style="stroke:#181818;stroke-width:0.5;" width="15" x="520.248" y="128"/><rect fill="#F1F1F1" height="2" style="stroke:#181818;stroke-width:0.5;" width="4" x="518.248" y="130"/><rect fill="#F1F1F1" height="2" style="stroke:#181818;stroke-width:0.5;" width="4" x="518.248" y="134"/><text fill="#000000" font-family="sans-serif" font-size="14" lengthAdjust="spacing" textLength="48.248" x="467" y="157.5332">index.ts</text></g><!--entity components/*--><g class="entity" data-entity="components.." data-source-line="15" data-uid="ent0013" id="entity_components.."><rect fill="#F1F1F1" height="47.6094" rx="2.5" ry="2.5" style="stroke:#181818;stroke-width:0.5;" width="125.6064" x="301" y="7"/><rect fill="#F1F1F1" height="10" style="stroke:#181818;stroke-width:0.5;" width="15" x="406.6064" y="12"/><rect fill="#F1F1F1" height="2" style="stroke:#181818;stroke-width:0.5;" width="4" x="404.6064" y="14"/><rect fill="#F1F1F1" height="2" style="stroke:#181818;stroke-width:0.5;" width="4" x="404.6064" y="18"/><text fill="#000000" font-family="sans-serif" font-size="14" lengthAdjust="spacing" textLength="85.6064" x="316" y="41.5332">components/*</text></g><g class="entity" data-entity="GMN18" data-source-line="19" data-uid="ent0019" id="entity_GMN18"><path d="M44.5,18 L44.5,44.3516 A0,0 0 0 0 44.5,44.3516 L265.6479,44.3516 A0,0 0 0 0 265.6479,44.3516 L265.6479,36 L300.98,31 L265.6479,28 L265.6479,28 L255.6479,18 L44.5,18 A0,0 0 0 0 44.5,18" fill="#FEFFDD" style="stroke:#181818;stroke-width:0.5;"/><path d="M255.6479,18 L255.6479,28 L265.6479,28 L255.6479,18" fill="#FEFFDD" style="stroke:#181818;stroke-width:0.5;"/><text fill="#000000" font-family="sans-serif" font-size="13" lengthAdjust="spacing" textLength="200.1479" x="50.5" y="36.4951">Principais contratos: types/index.ts</text></g><!--link components/* to hooks--><g class="link" data-entity-1="components.." data-entity-2="hooks" data-source-line="15" data-uid="lnk14" id="link_components.._hooks"><path d="M343.15,55.02 C341.27,57.62 339.51,60.31 338,63 C333.3825,71.2225 329.3594,80.3306 325.9136,89.4131 C324.1907,93.9544 322.6121,98.4892 321.1758,102.9037 C320.4576,105.111 319.775,107.2882 319.1277,109.4211 C318.804,110.4875 318.4892,111.5429 318.1831,112.5854 C318.1448,112.7157 319.7905,107.0869 319.7525,107.2168" fill="none" id="components/*-to-hooks" style="stroke:#181818;stroke-width:1;"/><polygon fill="#181818" points="318.0687,112.9757,324.4337,105.4599,319.4719,108.1766,316.7552,103.2148,318.0687,112.9757" style="stroke:#181818;stroke-width:1;"/></g><!--link components/* to utils--><g class="link" data-entity-1="components.." data-entity-2="utils" data-source-line="16" data-uid="lnk15" id="link_components.._utils"><path d="M364.17,55.02 C364.41,87.155 364.8575,147.4875 365.25,200.4763 C365.2991,207.0998 365.3473,213.6087 365.3941,219.9334 C365.4175,223.0957 365.4406,226.212 365.4633,229.2736 C365.4746,230.8044 365.4858,232.3215 365.4969,233.8239 C365.4997,234.1994 365.4581,228.5743 365.4608,228.948" fill="none" id="components/*-to-utils" style="stroke:#181818;stroke-width:1;"/><polygon fill="#181818" points="365.5053,234.9478,369.4385,225.9185,365.4682,229.948,361.4387,225.9777,365.5053,234.9478" style="stroke:#181818;stroke-width:1;"/></g><!--link components/* to types--><g class="link" data-entity-1="components.." data-entity-2="types" data-source-line="17" data-uid="lnk16" id="link_components.._types"><path d="M384.88,55.01 C386.75,57.61 388.5,60.3 390,63 C394.555,71.2175 398.4875,80.3231 401.8319,89.4047 C403.5041,93.9455 405.0292,98.4802 406.4116,102.895 C407.1029,105.1023 407.7584,107.2797 408.3788,109.4128 C408.5339,109.946 408.6868,110.4765 408.8375,111.0041 C408.8751,111.1359 407.2712,105.4966 407.3086,105.6281" fill="none" id="components/*-to-types" style="stroke:#181818;stroke-width:1;"/><polygon fill="#181818" points="408.9501,111.3991,410.3352,101.6482,407.5822,106.5899,402.6404,103.8369,408.9501,111.3991" style="stroke:#181818;stroke-width:1;"/></g><!--link hooks to utils--><g class="link" data-entity-1="hooks" data-entity-2="utils" data-source-line="18" data-uid="lnk17" id="link_hooks_utils"><path d="M318.0643,170.1745 C318.1414,170.3865 318.2189,170.5997 318.2968,170.814 C318.6085,171.6711 318.9269,172.5465 319.2514,173.4389 C324.4441,187.7178 331.2281,206.3731 338.0113,225.0263 C344.7944,243.6794 351.5766,262.3303 356.7655,276.6005 C357.0898,277.4924 357.4079,278.3671 357.7193,279.2237 C357.7972,279.4379 355.8243,274.0121 355.9013,274.2239" fill="none" id="hooks-to-utils" style="stroke:#181818;stroke-width:1;"/><polygon fill="#181818" points="357.9517,279.8627,358.6354,270.0376,356.2431,275.1637,351.117,272.7714,357.9517,279.8627" style="stroke:#181818;stroke-width:1;"/></g><!--SRC=[RO_12i8m38RlUugmep1ttq7O6mWUnmwXornOrvOs7OhuxixEWeAt97_-BtySgXcl1ELaxHnAU1G0NGpKHfdwJtsHE92HaFjM2QyiJDlaMRXCYC8w4vGrGJ1xHkiNb5HEf1tvVRoYvW65hVdXoDrHvh0Pw7QKT6Y3BiwQTvBwq4DLdI25_YUaBF-412-wPFnUDLO8D8tImDcpKUoG0snlY4UneTcDTSxp0W00]--></g></svg>