<svg xmlns="http://www.w3.org/2000/svg" xmlns:xlink="http://www.w3.org/1999/xlink" contentStyleType="text/css" data-diagram-type="SEQUENCE" height="391px" preserveAspectRatio="none" style="width:679px;height:391px;background:#FFFFFF;" version="1.1" viewBox="0 0 679 391" width="679px" zoomAndPan="magnify"><defs/><g><g><title>Prof</title><rect fill="#000000" fill-opacity="0.00000" height="226.8125" width="8" x="16.8379" y="82.6094"/><line style="stroke:#181818;stroke-width:0.5;stroke-dasharray:5,5;" x1="20" x2="20" y1="82.6094" y2="309.4219"/></g><g><title>RecordingsList</title><rect fill="#000000" fill-opacity="0.00000" height="226.8125" width="8" x="132.606" y="82.6094"/><line style="stroke:#181818;stroke-width:0.5;stroke-dasharray:5,5;" x1="136.3062" x2="136.3062" y1="82.6094" y2="309.4219"/></g><g><title>RecordingPlayer</title><rect fill="#000000" fill-opacity="0.00000" height="226.8125" width="8" x="254.6538" y="82.6094"/><line style="stroke:#181818;stroke-width:0.5;stroke-dasharray:5,5;" x1="257.9058" x2="257.9058" y1="82.6094" y2="309.4219"/></g><g><title>ExportReports</title><rect fill="#000000" fill-opacity="0.00000" height="226.8125" width="8" x="421" y="82.6094"/><line style="stroke:#181818;stroke-width:0.5;stroke-dasharray:5,5;" x1="424.2588" x2="424.2588" y1="82.6094" y2="309.4219"/></g><g><title>Storage</title><rect fill="#000000" fill-opacity="0.00000" height="226.8125" width="8" x="514.2583" y="82.6094"/><line style="stroke:#181818;stroke-width:0.5;stroke-dasharray:5,5;" x1="517.7412" x2="517.7412" y1="82.6094" y2="309.4219"/></g><g class="participant participant-head" data-participant="Prof"><text fill="#000000" font-family="sans-serif" font-size="14" lengthAdjust="spacing" textLength="25.6758" x="5" y="79.5332">Prof</text><ellipse cx="20.8379" cy="13.5" fill="#E2E2F0" rx="8" ry="8" style="stroke:#181818;stroke-width:0.5;"/><path d="M20.8379,21.5 L20.8379,48.5 M7.8379,29.5 L33.8379,29.5 M20.8379,48.5 L7.8379,63.5 M20.8379,48.5 L33.8379,63.5" fill="none" style="stroke:#181818;stroke-width:0.5;"/></g><g class="participant participant-tail" data-participant="Prof"><text fill="#000000" font-family="sans-serif" font-size="14" lengthAdjust="spacing" textLength="25.6758" x="5" y="322.9551">Prof</text><ellipse cx="20.8379" cy="334.5313" fill="#E2E2F0" rx="8" ry="8" style="stroke:#181818;stroke-width:0.5;"/><path d="M20.8379,342.5313 L20.8379,369.5313 M7.8379,350.5313 L33.8379,350.5313 M20.8379,369.5313 L7.8379,384.5313 M20.8379,369.5313 L33.8379,384.5313" fill="none" style="stroke:#181818;stroke-width:0.5;"/></g><g class="participant participant-head" data-participant="RecordingsList"><rect fill="#E2E2F0" height="31.6094" rx="2.5" ry="2.5" style="stroke:#181818;stroke-width:0.5;" width="106.5996" x="83.3062" y="50"/><text fill="#000000" font-family="sans-serif" font-size="14" lengthAdjust="spacing" textLength="92.5996" x="90.3062" y="71.5332">RecordingsList</text></g><g class="participant participant-tail" data-participant="RecordingsList"><rect fill="#E2E2F0" height="31.6094" rx="2.5" ry="2.5" style="stroke:#181818;stroke-width:0.5;" width="106.5996" x="83.3062" y="308.4219"/><text fill="#000000" font-family="sans-serif" font-size="14" lengthAdjust="spacing" textLength="92.5996" x="90.3062" y="329.9551">RecordingsList</text></g><g class="participant participant-head" data-participant="RecordingPlayer"><rect fill="#E2E2F0" height="31.6094" rx="2.5" ry="2.5" style="stroke:#181818;stroke-width:0.5;" width="117.4961" x="199.9058" y="50"/><text fill="#000000" font-family="sans-serif" font-size="14" lengthAdjust="spacing" textLength="103.4961" x="206.9058" y="71.5332">RecordingPlayer</text></g><g class="participant participant-tail" data-participant="RecordingPlayer"><rect fill="#E2E2F0" height="31.6094" rx="2.5" ry="2.5" style="stroke:#181818;stroke-width:0.5;" width="117.4961" x="199.9058" y="308.4219"/><text fill="#000000" font-family="sans-serif" font-size="14" lengthAdjust="spacing" textLength="103.4961" x="206.9058" y="329.9551">RecordingPlayer</text></g><g class="participant participant-head" data-participant="ExportReports"><rect fill="#E2E2F0" height="31.6094" rx="2.5" ry="2.5" style="stroke:#181818;stroke-width:0.5;" width="103.4824" x="373.2588" y="50"/><text fill="#000000" font-family="sans-serif" font-size="14" lengthAdjust="spacing" textLength="89.4824" x="380.2588" y="71.5332">ExportReports</text></g><g class="participant participant-tail" data-participant="ExportReports"><rect fill="#E2E2F0" height="31.6094" rx="2.5" ry="2.5" style="stroke:#181818;stroke-width:0.5;" width="103.4824" x="373.2588" y="308.4219"/><text fill="#000000" font-family="sans-serif" font-size="14" lengthAdjust="spacing" textLength="89.4824" x="380.2588" y="329.9551">ExportReports</text></g><g class="participant participant-head" data-participant="Storage"><rect fill="#E2E2F0" height="31.6094" rx="2.5" ry="2.5" style="stroke:#181818;stroke-width:0.5;" width="63.0342" x="486.7412" y="50"/><text fill="#000000" font-family="sans-serif" font-size="14" lengthAdjust="spacing" textLength="49.0342" x="493.7412" y="71.5332">Storage</text></g><g class="participant participant-tail" data-participant="Storage"><rect fill="#E2E2F0" height="31.6094" rx="2.5" ry="2.5" style="stroke:#181818;stroke-width:0.5;" width="63.0342" x="486.7412" y="308.4219"/><text fill="#000000" font-family="sans-serif" font-size="14" lengthAdjust="spacing" textLength="49.0342" x="493.7412" y="329.9551">Storage</text></g><g class="message" data-participant-1="Prof" data-participant-2="RecordingsList"><polygon fill="#181818" points="124.606,110.9609,134.606,114.9609,124.606,118.9609,128.606,114.9609" style="stroke:#181818;stroke-width:1;"/><line style="stroke:#181818;stroke-width:1;" x1="20.8379" x2="130.606" y1="114.9609" y2="114.9609"/><text fill="#000000" font-family="sans-serif" font-size="13" lengthAdjust="spacing" textLength="91.7681" x="27.8379" y="110.1045">select recording</text></g><g class="message" data-participant-1="RecordingsList" data-participant-2="RecordingPlayer"><polygon fill="#181818" points="246.6538,141.3125,256.6538,145.3125,246.6538,149.3125,250.6538,145.3125" style="stroke:#181818;stroke-width:1;"/><line style="stroke:#181818;stroke-width:1;" x1="136.606" x2="252.6538" y1="145.3125" y2="145.3125"/><text fill="#000000" font-family="sans-serif" font-size="13" lengthAdjust="spacing" textLength="70.1035" x="143.606" y="140.4561">play / pause</text></g><g class="message" data-participant-1="RecordingPlayer" data-participant-2="ExportReports"><polygon fill="#181818" points="413,171.6641,423,175.6641,413,179.6641,417,175.6641" style="stroke:#181818;stroke-width:1;"/><line style="stroke:#181818;stroke-width:1;" x1="258.6538" x2="419" y1="175.6641" y2="175.6641"/><text fill="#000000" font-family="sans-serif" font-size="13" lengthAdjust="spacing" textLength="142.3462" x="265.6538" y="170.8076">request export (mp3/pdf)</text></g><g class="message" data-participant-1="ExportReports" data-participant-2="Storage"><polygon fill="#181818" points="506.2583,202.0156,516.2583,206.0156,506.2583,210.0156,510.2583,206.0156" style="stroke:#181818;stroke-width:1;"/><line style="stroke:#181818;stroke-width:1;" x1="425" x2="512.2583" y1="206.0156" y2="206.0156"/><text fill="#000000" font-family="sans-serif" font-size="13" lengthAdjust="spacing" textLength="47.6899" x="432" y="201.1592">save file</text></g><g class="message" data-participant-1="ExportReports" data-participant-2="Prof"><polygon fill="#181818" points="31.8379,259.8945,21.8379,263.8945,31.8379,267.8945,27.8379,263.8945" style="stroke:#181818;stroke-width:1;"/><line style="stroke:#181818;stroke-width:1;stroke-dasharray:2,2;" x1="25.8379" x2="424" y1="263.8945" y2="263.8945"/><text fill="#000000" font-family="sans-serif" font-size="13" lengthAdjust="spacing" textLength="78.7744" x="37.8379" y="259.0381">download link</text></g><path d="M430,219.0156 L430,294.0156 L672,294.0156 L672,229.0156 L662,219.0156 L430,219.0156" fill="#FEFFDD" style="stroke:#181818;stroke-width:0.5;"/><path d="M662,219.0156 L662,229.0156 L672,229.0156 L662,219.0156" fill="#FEFFDD" style="stroke:#181818;stroke-width:0.5;"/><text fill="#000000" font-family="sans-serif" font-size="13" lengthAdjust="spacing" textLength="117.7808" x="436" y="237.5107">Arquivos relevantes:</text><text fill="#000000" font-family="sans-serif" font-size="13" lengthAdjust="spacing" textLength="210.2407" x="436" y="253.8623">`src/components/RecordingsList.tsx`</text><text fill="#000000" font-family="sans-serif" font-size="13" lengthAdjust="spacing" textLength="207.3462" x="436" y="270.2139">`src/components/ExportReports.tsx`</text><text fill="#000000" font-family="sans-serif" font-size="13" lengthAdjust="spacing" textLength="221.7935" x="436" y="286.5654">`src/components/ReportsAnalytics.tsx`</text><!--SRC=[TP4nJmCn38Nt_0gFC9GRkjs0r86DeIehGwESxuX8uzJsNTj_Zw-b4ZbWYIA_x_d5ZWzA35kctXNF6aCiFYliC11tCG_o6aN_bhR9Nv0hxULSY7M7yobkxWghvqKpQ44mOL3WUzqjY9-UMugPYbsWWU97GRUKpL5b6yzu7D6QuRKE3uUoRahNFxeQDEURhS0FE3_CJmXzJBY4ZBfEqq97fvp8Tv1Y_dIP587ZyA4jRFWuned4aXDEjWwKzZtlXKCJw50eOrPfwb6VLCxxtr2L_W_phMwoJnVxW1ls1G00]--></g></svg>