<svg xmlns="http://www.w3.org/2000/svg" xmlns:xlink="http://www.w3.org/1999/xlink" contentStyleType="text/css" data-diagram-type="SEQUENCE" height="289px" preserveAspectRatio="none" style="width:764px;height:289px;background:#FFFFFF;" version="1.1" viewBox="0 0 764 289" width="764px" zoomAndPan="magnify"><defs/><g><g><title>User.Prof.</title><rect fill="#000000" fill-opacity="0.00000" height="215.1094" width="8" x="40.2793" y="37.6094"/><line style="stroke:#181818;stroke-width:0.5;stroke-dasharray:5,5;" x1="44" x2="44" y1="37.6094" y2="252.7188"/></g><g><title>StudentDiagnostic</title><rect fill="#000000" fill-opacity="0.00000" height="215.1094" width="8" x="237.0054" y="37.6094"/><line style="stroke:#181818;stroke-width:0.5;stroke-dasharray:5,5;" x1="240.1919" x2="240.1919" y1="37.6094" y2="252.7188"/></g><g><title>DiagnosticResult</title><rect fill="#000000" fill-opacity="0.00000" height="215.1094" width="8" x="410.5815" y="37.6094"/><line style="stroke:#181818;stroke-width:0.5;stroke-dasharray:5,5;" x1="414.0576" x2="414.0576" y1="37.6094" y2="252.7188"/></g><g><title>AI Module .simulado.</title><rect fill="#000000" fill-opacity="0.00000" height="215.1094" width="8" x="680.9849" y="37.6094"/><line style="stroke:#181818;stroke-width:0.5;stroke-dasharray:5,5;" x1="684.8472" x2="684.8472" y1="37.6094" y2="252.7188"/></g><g class="participant participant-head" data-participant="U"><rect fill="#E2E2F0" height="31.6094" rx="2.5" ry="2.5" style="stroke:#181818;stroke-width:0.5;" width="78.5586" x="5" y="5"/><text fill="#000000" font-family="sans-serif" font-size="14" lengthAdjust="spacing" textLength="64.5586" x="12" y="26.5332">User(Prof)</text></g><g class="participant participant-tail" data-participant="U"><rect fill="#E2E2F0" height="31.6094" rx="2.5" ry="2.5" style="stroke:#181818;stroke-width:0.5;" width="78.5586" x="5" y="251.7188"/><text fill="#000000" font-family="sans-serif" font-size="14" lengthAdjust="spacing" textLength="64.5586" x="12" y="273.252">User(Prof)</text></g><g class="participant participant-head" data-participant="SD"><rect fill="#E2E2F0" height="31.6094" rx="2.5" ry="2.5" style="stroke:#181818;stroke-width:0.5;" width="127.627" x="177.1919" y="5"/><text fill="#000000" font-family="sans-serif" font-size="14" lengthAdjust="spacing" textLength="113.627" x="184.1919" y="26.5332">StudentDiagnostic</text></g><g class="participant participant-tail" data-participant="SD"><rect fill="#E2E2F0" height="31.6094" rx="2.5" ry="2.5" style="stroke:#181818;stroke-width:0.5;" width="127.627" x="177.1919" y="251.7188"/><text fill="#000000" font-family="sans-serif" font-size="14" lengthAdjust="spacing" textLength="113.627" x="184.1919" y="273.252">StudentDiagnostic</text></g><g class="participant participant-head" data-participant="DR"><rect fill="#E2E2F0" height="31.6094" rx="2.5" ry="2.5" style="stroke:#181818;stroke-width:0.5;" width="119.0479" x="355.0576" y="5"/><text fill="#000000" font-family="sans-serif" font-size="14" lengthAdjust="spacing" textLength="105.0479" x="362.0576" y="26.5332">DiagnosticResult</text></g><g class="participant participant-tail" data-participant="DR"><rect fill="#E2E2F0" height="31.6094" rx="2.5" ry="2.5" style="stroke:#181818;stroke-width:0.5;" width="119.0479" x="355.0576" y="251.7188"/><text fill="#000000" font-family="sans-serif" font-size="14" lengthAdjust="spacing" textLength="105.0479" x="362.0576" y="273.252">DiagnosticResult</text></g><g class="participant participant-head" data-participant="AI"><rect fill="#E2E2F0" height="31.6094" rx="2.5" ry="2.5" style="stroke:#181818;stroke-width:0.5;" width="146.2754" x="611.8472" y="5"/><text fill="#000000" font-family="sans-serif" font-size="14" lengthAdjust="spacing" textLength="132.2754" x="618.8472" y="26.5332">AI Module (simulado)</text></g><g class="participant participant-tail" data-participant="AI"><rect fill="#E2E2F0" height="31.6094" rx="2.5" ry="2.5" style="stroke:#181818;stroke-width:0.5;" width="146.2754" x="611.8472" y="251.7188"/><text fill="#000000" font-family="sans-serif" font-size="14" lengthAdjust="spacing" textLength="132.2754" x="618.8472" y="273.252">AI Module (simulado)</text></g><g class="message" data-participant-1="U" data-participant-2="SD"><polygon fill="#181818" points="229.0054,65.9609,239.0054,69.9609,229.0054,73.9609,233.0054,69.9609" style="stroke:#181818;stroke-width:1;"/><line style="stroke:#181818;stroke-width:1;" x1="44.2793" x2="235.0054" y1="69.9609" y2="69.9609"/><text fill="#000000" font-family="sans-serif" font-size="13" lengthAdjust="spacing" textLength="172.7261" x="51.2793" y="65.1045">responder todas as perguntas</text></g><g class="message" data-participant-1="SD" data-participant-2="SD"><line style="stroke:#181818;stroke-width:1;" x1="241.0054" x2="283.0054" y1="100.3125" y2="100.3125"/><line style="stroke:#181818;stroke-width:1;" x1="283.0054" x2="283.0054" y1="100.3125" y2="113.3125"/><line style="stroke:#181818;stroke-width:1;" x1="242.0054" x2="283.0054" y1="113.3125" y2="113.3125"/><polygon fill="#181818" points="252.0054,109.3125,242.0054,113.3125,252.0054,117.3125,248.0054,113.3125" style="stroke:#181818;stroke-width:1;"/><text fill="#000000" font-family="sans-serif" font-size="13" lengthAdjust="spacing" textLength="98.2681" x="248.0054" y="95.4561">validar respostas</text></g><g class="message" data-participant-1="SD" data-participant-2="DR"><polygon fill="#181818" points="402.5815,139.6641,412.5815,143.6641,402.5815,147.6641,406.5815,143.6641" style="stroke:#181818;stroke-width:1;"/><line style="stroke:#181818;stroke-width:1;" x1="241.0054" x2="408.5815" y1="143.6641" y2="143.6641"/><text fill="#000000" font-family="sans-serif" font-size="13" lengthAdjust="spacing" textLength="149.5762" x="248.0054" y="138.8076">setDiagnosticData(dados)</text></g><g class="message" data-participant-1="DR" data-participant-2="AI"><polygon fill="#181818" points="672.9849,170.0156,682.9849,174.0156,672.9849,178.0156,676.9849,174.0156" style="stroke:#181818;stroke-width:1;"/><line style="stroke:#181818;stroke-width:1;" x1="414.5815" x2="678.9849" y1="174.0156" y2="174.0156"/><text fill="#000000" font-family="sans-serif" font-size="13" lengthAdjust="spacing" textLength="246.4033" x="421.5815" y="169.1592">requestRecommendations(diagnosticData)</text></g><g class="message" data-participant-1="AI" data-participant-2="DR"><polygon fill="#181818" points="425.5815,200.3672,415.5815,204.3672,425.5815,208.3672,421.5815,204.3672" style="stroke:#181818;stroke-width:1;"/><line style="stroke:#181818;stroke-width:1;stroke-dasharray:2,2;" x1="419.5815" x2="683.9849" y1="204.3672" y2="204.3672"/><text fill="#000000" font-family="sans-serif" font-size="13" lengthAdjust="spacing" textLength="103.3271" x="431.5815" y="199.5107">recommendations</text></g><g class="message" data-participant-1="DR" data-participant-2="U"><polygon fill="#181818" points="55.2793,230.7188,45.2793,234.7188,55.2793,238.7188,51.2793,234.7188" style="stroke:#181818;stroke-width:1;"/><line style="stroke:#181818;stroke-width:1;" x1="49.2793" x2="413.5815" y1="234.7188" y2="234.7188"/><text fill="#000000" font-family="sans-serif" font-size="13" lengthAdjust="spacing" textLength="181.3208" x="61.2793" y="229.8623">mostrar relat&#243;rio (charts, cards)</text></g><!--SRC=[LOz1QWCn34NtFeN8oWFD1Ree1Bp9eb0cp074M4qD7jkLv5uiHyZ5gauQaW6l_9w-lXgofZarB0gxIOZz1zVFOGSeCBdsJ4_Q8nKD2S-bYlslqYbihGSUINhMLGhZLZeSuRt6dWcyfALdZFMsyd1q4-pVB1LUWKbQBP4Oj4Q3zXhnkHT5SMRSlH_CAIBVV7d0C1eKUceSKD57soQ3CsgEDVbRzDr9TAIvBWkLY9fg4HytSuCpTt-FvQtxdpOPMMo2rpOPzNhXLC7FNtQzlC2C76Nu1G00]--></g></svg>