<svg xmlns="http://www.w3.org/2000/svg" xmlns:xlink="http://www.w3.org/1999/xlink" contentStyleType="text/css" data-diagram-type="SEQUENCE" height="435px" preserveAspectRatio="none" style="width:688px;height:435px;background:#FFFFFF;" version="1.1" viewBox="0 0 688 435" width="688px" zoomAndPan="magnify"><defs/><g><g><title>User</title><rect fill="#000000" fill-opacity="0.00000" height="271.1641" width="8" x="18.7793" y="82.6094"/><line style="stroke:#181818;stroke-width:0.5;stroke-dasharray:5,5;" x1="22" x2="22" y1="82.6094" y2="353.7734"/></g><g><title>LoginPage</title><rect fill="#000000" fill-opacity="0.00000" height="271.1641" width="8" x="187.3027" y="82.6094"/><line style="stroke:#181818;stroke-width:0.5;stroke-dasharray:5,5;" x1="190.8271" x2="190.8271" y1="82.6094" y2="353.7734"/></g><g><title>useAuth</title><rect fill="#000000" fill-opacity="0.00000" height="271.1641" width="8" x="351.8589" y="82.6094"/><line style="stroke:#181818;stroke-width:0.5;stroke-dasharray:5,5;" x1="355.1729" x2="355.1729" y1="82.6094" y2="353.7734"/></g><g><title>ProfessionalHome</title><rect fill="#000000" fill-opacity="0.00000" height="271.1641" width="8" x="465.4497" y="82.6094"/><line style="stroke:#181818;stroke-width:0.5;stroke-dasharray:5,5;" x1="469.2568" x2="469.2568" y1="82.6094" y2="353.7734"/></g><g><title>AuthService</title><rect fill="#000000" fill-opacity="0.00000" height="271.1641" width="8" x="584.3838" y="82.6094"/><line style="stroke:#181818;stroke-width:0.5;stroke-dasharray:5,5;" x1="587.6426" x2="587.6426" y1="82.6094" y2="353.7734"/></g><g class="participant participant-head" data-participant="User"><text fill="#000000" font-family="sans-serif" font-size="14" lengthAdjust="spacing" textLength="29.5586" x="5" y="79.5332">User</text><ellipse cx="22.7793" cy="13.5" fill="#E2E2F0" rx="8" ry="8" style="stroke:#181818;stroke-width:0.5;"/><path d="M22.7793,21.5 L22.7793,48.5 M9.7793,29.5 L35.7793,29.5 M22.7793,48.5 L9.7793,63.5 M22.7793,48.5 L35.7793,63.5" fill="none" style="stroke:#181818;stroke-width:0.5;"/></g><g class="participant participant-tail" data-participant="User"><text fill="#000000" font-family="sans-serif" font-size="14" lengthAdjust="spacing" textLength="29.5586" x="5" y="367.3066">User</text><ellipse cx="22.7793" cy="378.8828" fill="#E2E2F0" rx="8" ry="8" style="stroke:#181818;stroke-width:0.5;"/><path d="M22.7793,386.8828 L22.7793,413.8828 M9.7793,394.8828 L35.7793,394.8828 M22.7793,413.8828 L9.7793,428.8828 M22.7793,413.8828 L35.7793,428.8828" fill="none" style="stroke:#181818;stroke-width:0.5;"/></g><g class="participant participant-head" data-participant="LoginPage"><rect fill="#E2E2F0" height="31.6094" rx="2.5" ry="2.5" style="stroke:#181818;stroke-width:0.5;" width="80.9512" x="150.8271" y="50"/><text fill="#000000" font-family="sans-serif" font-size="14" lengthAdjust="spacing" textLength="66.9512" x="157.8271" y="71.5332">LoginPage</text></g><g class="participant participant-tail" data-participant="LoginPage"><rect fill="#E2E2F0" height="31.6094" rx="2.5" ry="2.5" style="stroke:#181818;stroke-width:0.5;" width="80.9512" x="150.8271" y="352.7734"/><text fill="#000000" font-family="sans-serif" font-size="14" lengthAdjust="spacing" textLength="66.9512" x="157.8271" y="374.3066">LoginPage</text></g><g class="participant participant-head" data-participant="useAuth"><rect fill="#E2E2F0" height="31.6094" rx="2.5" ry="2.5" style="stroke:#181818;stroke-width:0.5;" width="65.3721" x="323.1729" y="50"/><text fill="#000000" font-family="sans-serif" font-size="14" lengthAdjust="spacing" textLength="51.3721" x="330.1729" y="71.5332">useAuth</text></g><g class="participant participant-tail" data-participant="useAuth"><rect fill="#E2E2F0" height="31.6094" rx="2.5" ry="2.5" style="stroke:#181818;stroke-width:0.5;" width="65.3721" x="323.1729" y="352.7734"/><text fill="#000000" font-family="sans-serif" font-size="14" lengthAdjust="spacing" textLength="51.3721" x="330.1729" y="374.3066">useAuth</text></g><g class="participant participant-head" data-participant="ProfessionalHome"><rect fill="#E2E2F0" height="31.6094" rx="2.5" ry="2.5" style="stroke:#181818;stroke-width:0.5;" width="128.3857" x="405.2568" y="50"/><text fill="#000000" font-family="sans-serif" font-size="14" lengthAdjust="spacing" textLength="114.3857" x="412.2568" y="71.5332">ProfessionalHome</text></g><g class="participant participant-tail" data-participant="ProfessionalHome"><rect fill="#E2E2F0" height="31.6094" rx="2.5" ry="2.5" style="stroke:#181818;stroke-width:0.5;" width="128.3857" x="405.2568" y="352.7734"/><text fill="#000000" font-family="sans-serif" font-size="14" lengthAdjust="spacing" textLength="114.3857" x="412.2568" y="374.3066">ProfessionalHome</text></g><g class="participant participant-head" data-participant="AuthService"><rect fill="#E2E2F0" height="31.6094" rx="2.5" ry="2.5" style="stroke:#181818;stroke-width:0.5;" width="89.4824" x="543.6426" y="50"/><text fill="#000000" font-family="sans-serif" font-size="14" lengthAdjust="spacing" textLength="75.4824" x="550.6426" y="71.5332">AuthService</text></g><g class="participant participant-tail" data-participant="AuthService"><rect fill="#E2E2F0" height="31.6094" rx="2.5" ry="2.5" style="stroke:#181818;stroke-width:0.5;" width="89.4824" x="543.6426" y="352.7734"/><text fill="#000000" font-family="sans-serif" font-size="14" lengthAdjust="spacing" textLength="75.4824" x="550.6426" y="374.3066">AuthService</text></g><g class="message" data-participant-1="User" data-participant-2="LoginPage"><polygon fill="#181818" points="179.3027,110.9609,189.3027,114.9609,179.3027,118.9609,183.3027,114.9609" style="stroke:#181818;stroke-width:1;"/><line style="stroke:#181818;stroke-width:1;" x1="22.7793" x2="185.3027" y1="114.9609" y2="114.9609"/><text fill="#000000" font-family="sans-serif" font-size="13" lengthAdjust="spacing" textLength="144.5234" x="29.7793" y="110.1045">open / submit credentials</text></g><g class="message" data-participant-1="LoginPage" data-participant-2="useAuth"><polygon fill="#181818" points="343.8589,141.3125,353.8589,145.3125,343.8589,149.3125,347.8589,145.3125" style="stroke:#181818;stroke-width:1;"/><line style="stroke:#181818;stroke-width:1;" x1="191.3027" x2="349.8589" y1="145.3125" y2="145.3125"/><text fill="#000000" font-family="sans-serif" font-size="13" lengthAdjust="spacing" textLength="129.3335" x="198.3027" y="140.4561">call signIn(credentials)</text></g><g class="message" data-participant-1="useAuth" data-participant-2="AuthService"><polygon fill="#181818" points="576.3838,171.6641,586.3838,175.6641,576.3838,179.6641,580.3838,175.6641" style="stroke:#181818;stroke-width:1;"/><line style="stroke:#181818;stroke-width:1;" x1="355.8589" x2="582.3838" y1="175.6641" y2="175.6641"/><text fill="#000000" font-family="sans-serif" font-size="13" lengthAdjust="spacing" textLength="130.7617" x="362.8589" y="170.8076">verify credentials (API)</text></g><g class="message" data-participant-1="AuthService" data-participant-2="useAuth"><polygon fill="#181818" points="366.8589,202.0156,356.8589,206.0156,366.8589,210.0156,362.8589,206.0156" style="stroke:#181818;stroke-width:1;"/><line style="stroke:#181818;stroke-width:1;stroke-dasharray:2,2;" x1="360.8589" x2="587.3838" y1="206.0156" y2="206.0156"/><text fill="#000000" font-family="sans-serif" font-size="13" lengthAdjust="spacing" textLength="67.9263" x="372.8589" y="201.1592">token / user</text></g><g class="message" data-participant-1="useAuth" data-participant-2="LoginPage"><polygon fill="#181818" points="202.3027,232.3672,192.3027,236.3672,202.3027,240.3672,198.3027,236.3672" style="stroke:#181818;stroke-width:1;"/><line style="stroke:#181818;stroke-width:1;stroke-dasharray:2,2;" x1="196.3027" x2="354.8589" y1="236.3672" y2="236.3672"/><text fill="#000000" font-family="sans-serif" font-size="13" lengthAdjust="spacing" textLength="140.5562" x="208.3027" y="231.5107">authenticated -&gt; redirect</text></g><g class="message" data-participant-1="LoginPage" data-participant-2="ProfessionalHome"><polygon fill="#181818" points="457.4497,262.7188,467.4497,266.7188,457.4497,270.7188,461.4497,266.7188" style="stroke:#181818;stroke-width:1;"/><line style="stroke:#181818;stroke-width:1;" x1="191.3027" x2="463.4497" y1="266.7188" y2="266.7188"/><text fill="#000000" font-family="sans-serif" font-size="13" lengthAdjust="spacing" textLength="49.1499" x="198.3027" y="261.8623">navigate</text></g><g class="message" data-participant-1="ProfessionalHome" data-participant-2="useAuth"><polygon fill="#181818" points="366.8589,312.4219,356.8589,316.4219,366.8589,320.4219,362.8589,316.4219" style="stroke:#181818;stroke-width:1;"/><line style="stroke:#181818;stroke-width:1;" x1="360.8589" x2="468.4497" y1="316.4219" y2="316.4219"/><text fill="#000000" font-family="sans-serif" font-size="13" lengthAdjust="spacing" textLength="89.5908" x="372.8589" y="311.5654">get currentUser</text></g><path d="M474,279.7188 L474,338.7188 L681,338.7188 L681,289.7188 L671,279.7188 L474,279.7188" fill="#FEFFDD" style="stroke:#181818;stroke-width:0.5;"/><path d="M671,279.7188 L671,289.7188 L681,289.7188 L671,279.7188" fill="#FEFFDD" style="stroke:#181818;stroke-width:0.5;"/><text fill="#000000" font-family="sans-serif" font-size="13" lengthAdjust="spacing" textLength="117.7808" x="480" y="298.2139">Arquivos relevantes:</text><text fill="#000000" font-family="sans-serif" font-size="13" lengthAdjust="spacing" textLength="186.4243" x="480" y="314.5654">`src/components/LoginPage.tsx`</text><text fill="#000000" font-family="sans-serif" font-size="13" lengthAdjust="spacing" textLength="129.3271" x="480" y="330.917">`src/hooks/useAuth.ts`</text><!--SRC=[PP6nRiCm34HtVON6P4YzUoZWhG4w62YwTR2gC38HMtH9oMZ_lbJW9dOw6I3lxfrevnEnVHTWCpbEw75oCTbN2XXR5s0ppG9DJlrcrZATGGGfkk65HZ0bonwUxn6sjZH1j9ML_3bYifxX136X6yJSLMfPyjNWtJ1OmH2FSRUIxysVHDNb-mOyeo-86HZFF-jikslQuzwiPOSD9D7bMYkNrz-27wex7PP0xnAS2bO1oE3JjlhZ6TGPtOn1NURVRjCYW5uaCola-XiY9R2CeK-rRVWhuqoYq05cFJT8_H4xOLzv6YUAQfBgLkGfoNUtx7kYYrGBHXVTBm00]--></g></svg>