<svg xmlns="http://www.w3.org/2000/svg" xmlns:xlink="http://www.w3.org/1999/xlink" contentStyleType="text/css" data-diagram-type="SEQUENCE" height="407px" preserveAspectRatio="none" style="width:881px;height:407px;background:#FFFFFF;" version="1.1" viewBox="0 0 881 407" width="881px" zoomAndPan="magnify"><defs/><g><g><title>Student</title><rect fill="#000000" fill-opacity="0.00000" height="243.1641" width="8" x="28.1309" y="82.6094"/><line style="stroke:#181818;stroke-width:0.5;stroke-dasharray:5,5;" x1="32" x2="32" y1="82.6094" y2="325.7734"/></g><g><title>ReadingTrail</title><rect fill="#000000" fill-opacity="0.00000" height="243.1641" width="8" x="111.9478" y="82.6094"/><line style="stroke:#181818;stroke-width:0.5;stroke-dasharray:5,5;" x1="115.2617" x2="115.2617" y1="82.6094" y2="325.7734"/></g><g><title>ReadingStory</title><rect fill="#000000" fill-opacity="0.00000" height="243.1641" width="8" x="218.0474" y="82.6094"/><line style="stroke:#181818;stroke-width:0.5;stroke-dasharray:5,5;" x1="221.6338" x2="221.6338" y1="82.6094" y2="325.7734"/></g><g><title>TextReader</title><rect fill="#000000" fill-opacity="0.00000" height="243.1641" width="8" x="346.8345" y="82.6094"/><line style="stroke:#181818;stroke-width:0.5;stroke-dasharray:5,5;" x1="350.2622" x2="350.2622" y1="82.6094" y2="325.7734"/></g><g><title>ReadingProgress</title><rect fill="#000000" fill-opacity="0.00000" height="243.1641" width="8" x="515.3579" y="82.6094"/><line style="stroke:#181818;stroke-width:0.5;stroke-dasharray:5,5;" x1="519.272" x2="519.272" y1="82.6094" y2="325.7734"/></g><g><title>Reports</title><rect fill="#000000" fill-opacity="0.00000" height="243.1641" width="8" x="620.2778" y="82.6094"/><line style="stroke:#181818;stroke-width:0.5;stroke-dasharray:5,5;" x1="623.7676" x2="623.7676" y1="82.6094" y2="325.7734"/></g><g class="participant participant-head" data-participant="Student"><text fill="#000000" font-family="sans-serif" font-size="14" lengthAdjust="spacing" textLength="48.2617" x="5" y="79.5332">Student</text><ellipse cx="32.1309" cy="13.5" fill="#E2E2F0" rx="8" ry="8" style="stroke:#181818;stroke-width:0.5;"/><path d="M32.1309,21.5 L32.1309,48.5 M19.1309,29.5 L45.1309,29.5 M32.1309,48.5 L19.1309,63.5 M32.1309,48.5 L45.1309,63.5" fill="none" style="stroke:#181818;stroke-width:0.5;"/></g><g class="participant participant-tail" data-participant="Student"><text fill="#000000" font-family="sans-serif" font-size="14" lengthAdjust="spacing" textLength="48.2617" x="5" y="339.3066">Student</text><ellipse cx="32.1309" cy="350.8828" fill="#E2E2F0" rx="8" ry="8" style="stroke:#181818;stroke-width:0.5;"/><path d="M32.1309,358.8828 L32.1309,385.8828 M19.1309,366.8828 L45.1309,366.8828 M32.1309,385.8828 L19.1309,400.8828 M32.1309,385.8828 L45.1309,400.8828" fill="none" style="stroke:#181818;stroke-width:0.5;"/></g><g class="participant participant-head" data-participant="ReadingTrail"><rect fill="#E2E2F0" height="31.6094" rx="2.5" ry="2.5" style="stroke:#181818;stroke-width:0.5;" width="93.3721" x="69.2617" y="50"/><text fill="#000000" font-family="sans-serif" font-size="14" lengthAdjust="spacing" textLength="79.3721" x="76.2617" y="71.5332">ReadingTrail</text></g><g class="participant participant-tail" data-participant="ReadingTrail"><rect fill="#E2E2F0" height="31.6094" rx="2.5" ry="2.5" style="stroke:#181818;stroke-width:0.5;" width="93.3721" x="69.2617" y="324.7734"/><text fill="#000000" font-family="sans-serif" font-size="14" lengthAdjust="spacing" textLength="79.3721" x="76.2617" y="346.3066">ReadingTrail</text></g><g class="participant participant-head" data-participant="ReadingStory"><rect fill="#E2E2F0" height="31.6094" rx="2.5" ry="2.5" style="stroke:#181818;stroke-width:0.5;" width="98.8271" x="172.6338" y="50"/><text fill="#000000" font-family="sans-serif" font-size="14" lengthAdjust="spacing" textLength="84.8271" x="179.6338" y="71.5332">ReadingStory</text></g><g class="participant participant-tail" data-participant="ReadingStory"><rect fill="#E2E2F0" height="31.6094" rx="2.5" ry="2.5" style="stroke:#181818;stroke-width:0.5;" width="98.8271" x="172.6338" y="324.7734"/><text fill="#000000" font-family="sans-serif" font-size="14" lengthAdjust="spacing" textLength="84.8271" x="179.6338" y="346.3066">ReadingStory</text></g><g class="participant participant-head" data-participant="TextReader"><rect fill="#E2E2F0" height="31.6094" rx="2.5" ry="2.5" style="stroke:#181818;stroke-width:0.5;" width="87.1445" x="307.2622" y="50"/><text fill="#000000" font-family="sans-serif" font-size="14" lengthAdjust="spacing" textLength="73.1445" x="314.2622" y="71.5332">TextReader</text></g><g class="participant participant-tail" data-participant="TextReader"><rect fill="#E2E2F0" height="31.6094" rx="2.5" ry="2.5" style="stroke:#181818;stroke-width:0.5;" width="87.1445" x="307.2622" y="324.7734"/><text fill="#000000" font-family="sans-serif" font-size="14" lengthAdjust="spacing" textLength="73.1445" x="314.2622" y="346.3066">TextReader</text></g><g class="participant participant-head" data-participant="ReadingProgress"><rect fill="#E2E2F0" height="31.6094" rx="2.5" ry="2.5" style="stroke:#181818;stroke-width:0.5;" width="122.1719" x="458.272" y="50"/><text fill="#000000" font-family="sans-serif" font-size="14" lengthAdjust="spacing" textLength="108.1719" x="465.272" y="71.5332">ReadingProgress</text></g><g class="participant participant-tail" data-participant="ReadingProgress"><rect fill="#E2E2F0" height="31.6094" rx="2.5" ry="2.5" style="stroke:#181818;stroke-width:0.5;" width="122.1719" x="458.272" y="324.7734"/><text fill="#000000" font-family="sans-serif" font-size="14" lengthAdjust="spacing" textLength="108.1719" x="465.272" y="346.3066">ReadingProgress</text></g><g class="participant participant-head" data-participant="Reports"><rect fill="#E2E2F0" height="31.6094" rx="2.5" ry="2.5" style="stroke:#181818;stroke-width:0.5;" width="63.0205" x="592.7676" y="50"/><text fill="#000000" font-family="sans-serif" font-size="14" lengthAdjust="spacing" textLength="49.0205" x="599.7676" y="71.5332">Reports</text></g><g class="participant participant-tail" data-participant="Reports"><rect fill="#E2E2F0" height="31.6094" rx="2.5" ry="2.5" style="stroke:#181818;stroke-width:0.5;" width="63.0205" x="592.7676" y="324.7734"/><text fill="#000000" font-family="sans-serif" font-size="14" lengthAdjust="spacing" textLength="49.0205" x="599.7676" y="346.3066">Reports</text></g><g class="message" data-participant-1="Student" data-participant-2="ReadingTrail"><polygon fill="#181818" points="103.9478,110.9609,113.9478,114.9609,103.9478,118.9609,107.9478,114.9609" style="stroke:#181818;stroke-width:1;"/><line style="stroke:#181818;stroke-width:1;" x1="32.1309" x2="109.9478" y1="114.9609" y2="114.9609"/><text fill="#000000" font-family="sans-serif" font-size="13" lengthAdjust="spacing" textLength="53.479" x="39.1309" y="110.1045">open trail</text></g><g class="message" data-participant-1="ReadingTrail" data-participant-2="ReadingStory"><polygon fill="#181818" points="210.0474,141.3125,220.0474,145.3125,210.0474,149.3125,214.0474,145.3125" style="stroke:#181818;stroke-width:1;"/><line style="stroke:#181818;stroke-width:1;" x1="115.9478" x2="216.0474" y1="145.3125" y2="145.3125"/><text fill="#000000" font-family="sans-serif" font-size="13" lengthAdjust="spacing" textLength="60.7026" x="122.9478" y="140.4561">open story</text></g><g class="message" data-participant-1="ReadingStory" data-participant-2="TextReader"><polygon fill="#181818" points="338.8345,171.6641,348.8345,175.6641,338.8345,179.6641,342.8345,175.6641" style="stroke:#181818;stroke-width:1;"/><line style="stroke:#181818;stroke-width:1;" x1="222.0474" x2="344.8345" y1="175.6641" y2="175.6641"/><text fill="#000000" font-family="sans-serif" font-size="13" lengthAdjust="spacing" textLength="104.7871" x="229.0474" y="170.8076">render text / audio</text></g><g class="message" data-participant-1="TextReader" data-participant-2="ReadingProgress"><polygon fill="#181818" points="507.3579,202.0156,517.3579,206.0156,507.3579,210.0156,511.3579,206.0156" style="stroke:#181818;stroke-width:1;"/><line style="stroke:#181818;stroke-width:1;" x1="350.8345" x2="513.3579" y1="206.0156" y2="206.0156"/><text fill="#000000" font-family="sans-serif" font-size="13" lengthAdjust="spacing" textLength="144.5234" x="357.8345" y="201.1592">update progress (events)</text></g><g class="message" data-participant-1="ReadingProgress" data-participant-2="Reports"><polygon fill="#181818" points="612.2778,268.0703,622.2778,272.0703,612.2778,276.0703,616.2778,272.0703" style="stroke:#181818;stroke-width:1;"/><line style="stroke:#181818;stroke-width:1;" x1="519.3579" x2="618.2778" y1="272.0703" y2="272.0703"/><text fill="#000000" font-family="sans-serif" font-size="13" lengthAdjust="spacing" textLength="80.9199" x="526.3579" y="267.2139">sync progress</text></g><path d="M629,219.0156 L629,310.0156 L874,310.0156 L874,229.0156 L864,219.0156 L629,219.0156" fill="#FEFFDD" style="stroke:#181818;stroke-width:0.5;"/><path d="M864,219.0156 L864,229.0156 L874,229.0156 L864,219.0156" fill="#FEFFDD" style="stroke:#181818;stroke-width:0.5;"/><text fill="#000000" font-family="sans-serif" font-size="13" lengthAdjust="spacing" textLength="117.7808" x="635" y="237.5107">Arquivos relevantes:</text><text fill="#000000" font-family="sans-serif" font-size="13" lengthAdjust="spacing" textLength="197.958" x="635" y="253.8623">`src/components/ReadingTrail.tsx`</text><text fill="#000000" font-family="sans-serif" font-size="13" lengthAdjust="spacing" textLength="203.0234" x="635" y="270.2139">`src/components/ReadingStory.tsx`</text><text fill="#000000" font-family="sans-serif" font-size="13" lengthAdjust="spacing" textLength="192.1753" x="635" y="286.5654">`src/components/TextReader.tsx`</text><text fill="#000000" font-family="sans-serif" font-size="13" lengthAdjust="spacing" textLength="224.7007" x="635" y="302.917">`src/components/ReadingProgress.tsx`</text><!--SRC=[VP2nRiCm34HtVGN7PcYzUmZGFoYQZ1aYo8Gh82KLaZQIlmyjr7LS9Dq4tZloJZ4P2-niw90ib2YMKowH33unTfdwlSHyUYJit7XT2Nkys2IYFE8_X7j1rV1p35wtgnlG0XSai7fmfInaFJgJMXEi52UN5Cu9qlGmdq43SUWoXpjWMJodSyzGkcW8PPwyuEXnTHF-ejLTM6nowPNIhoSG-mR9_PUry2xd8O-i7kQ4e_y8QdkWeqfg4dyNfcbxSr_upVHoV8hKfa-GfTl_E-OEbRe1]--></g></svg>